<svg width="361" height="150" viewBox="0 0 361 150" fill="none" xmlns="http://www.w3.org/2000/svg">
<path d="M25.3337 58.7783C25.3337 54.8736 28.5379 53.3711 33.8459 53.3711C41.4554 53.3711 51.0681 55.6748 58.6783 59.7802V36.2482C50.3675 32.944 42.1567 31.6422 33.8459 31.6422C13.5181 31.6422 0 42.2567 0 59.9809C0 87.6169 38.0506 83.2115 38.0506 95.1279C38.0506 99.7332 34.0458 101.236 28.438 101.236C20.1272 101.236 9.51264 97.8308 1.10116 93.2248L1.10116 117.057C10.4139 121.062 19.8265 122.764 28.438 122.764C49.2657 122.764 63.585 112.451 63.585 94.5266C63.485 64.6868 25.3337 69.9934 25.3337 58.7783ZM93.0241 11.6157L68.5916 16.8223L68.4916 97.0295C68.4916 111.85 79.6067 122.764 94.4266 122.764C102.637 122.764 108.645 121.262 111.949 119.46V99.1326C108.746 100.434 92.9241 105.04 92.9241 90.2205V54.6729H111.949V33.3446H92.9241L93.0241 11.6157ZM143.092 40.7542L141.489 33.3446H119.86V120.961H144.894V61.5826C150.801 53.8724 160.815 55.2742 163.919 56.3753V33.3446C160.715 32.1428 149 29.9397 143.092 40.7542ZM170.027 33.3446H195.161V120.961H170.027V33.3446ZM170.027 25.7343L195.161 20.3271V0L170.027 5.30725V25.7336V25.7343ZM247.431 31.6422C237.618 31.6422 231.309 36.2482 227.805 39.4531L226.502 33.2446H204.474V150L229.507 144.693L229.607 116.355C233.212 118.959 238.519 122.664 247.331 122.664C265.255 122.664 281.577 108.245 281.577 76.5025C281.477 47.4632 264.954 31.6422 247.431 31.6422ZM241.423 100.634C235.515 100.634 232.01 98.532 229.607 95.9284L229.507 58.7783C232.11 55.8747 235.715 53.8724 241.423 53.8724C250.535 53.8724 256.844 64.0856 256.844 77.203C256.844 90.6211 250.635 100.634 241.423 100.634ZM360.482 77.5037C360.482 51.8693 348.065 31.6422 324.334 31.6422C300.501 31.6422 286.082 51.87 286.082 77.3037C286.082 107.443 303.106 122.664 327.537 122.664C339.454 122.664 348.466 119.96 355.275 116.156V96.1283C348.467 99.5332 340.656 101.636 330.742 101.636C321.029 101.636 312.418 98.2314 311.316 86.4157H360.282C360.282 85.1132 360.482 79.9066 360.482 77.5037ZM311.016 67.991C311.016 56.676 317.926 51.9693 324.234 51.9693C330.342 51.9693 336.851 56.676 336.851 67.991H311.016Z" fill="#6772E5"/>
</svg>
