<svg width="151" height="151" viewBox="0 0 151 151" fill="none" xmlns="http://www.w3.org/2000/svg">
<g clip-path="url(#clip0_5:587)">
<path d="M0.792236 75.6495V150.65H150.792V0.649536H0.792236V75.6495Z" fill="#007ACC"/>
<path d="M33.9627 76.1476L33.9153 82.29H53.4387V137.767H67.2493V82.29H86.7727V76.2665C86.7727 72.9325 86.7012 70.147 86.6063 70.0755C86.5348 69.9806 74.6537 69.9325 60.2491 69.9566L34.0348 70.0281L33.9633 76.147L33.9627 76.1476Z" fill="white"/>
<path d="M121.828 69.8535C125.637 70.8062 128.542 72.4961 131.208 75.2582C132.59 76.7348 134.637 79.4254 134.804 80.0682C134.851 80.2586 128.327 84.6396 124.375 87.0918C124.232 87.1873 123.66 86.568 123.018 85.6152C121.089 82.8062 119.065 81.5916 115.97 81.3777C111.423 81.0678 108.494 83.449 108.518 87.4246C108.518 88.5918 108.684 89.282 109.161 90.2348C110.161 92.306 112.018 93.5441 117.851 96.0678C128.589 100.687 133.184 103.735 136.042 108.068C139.232 112.902 139.947 120.616 137.78 126.354C135.399 132.592 129.495 136.83 121.184 138.235C118.613 138.687 112.518 138.616 109.756 138.116C103.733 137.044 98.018 134.068 94.4942 130.163C93.1131 128.639 90.4225 124.663 90.5895 124.377C90.661 124.282 91.2797 123.902 91.97 123.497C92.6368 123.116 95.161 121.663 97.5416 120.282L101.851 117.782L102.756 119.116C104.018 121.044 106.78 123.687 108.447 124.568C113.232 127.092 119.804 126.735 123.042 123.829C124.423 122.568 124.994 121.258 124.994 119.329C124.994 117.592 124.78 116.83 123.875 115.521C122.709 113.854 120.328 112.449 113.565 109.521C105.827 106.187 102.494 104.116 99.4465 100.83C97.6846 98.9254 96.0176 95.8773 95.3274 93.3297C94.7561 91.2109 94.6125 85.9012 95.0655 83.7584C96.661 76.2818 102.304 71.0682 110.446 69.5201C113.089 69.0203 119.232 69.2107 121.828 69.8541V69.8535Z" fill="white"/>
</g>
<defs>
<clipPath id="clip0_5:587">
<rect width="150" height="150" fill="white" transform="translate(0.792236 0.649536)"/>
</clipPath>
</defs>
</svg>
