<svg width="155" height="150" viewBox="0 0 155 150" fill="none" xmlns="http://www.w3.org/2000/svg">
<g clip-path="url(#clip0_25:14)">
<path d="M85.5885 115.113C85.5885 134.273 70.0572 149.807 50.897 149.807C31.7343 149.807 16.2024 134.273 16.2024 115.113C16.2024 95.9524 31.7337 80.4187 50.897 80.4187C70.0572 80.4187 85.5885 95.9524 85.5885 115.113Z" fill="#FF6600"/>
<path d="M154.205 66.5416C154.205 85.6994 138.673 101.236 119.513 101.236C100.351 101.236 84.8192 85.6994 84.8192 66.5416C84.8192 47.3808 100.35 31.8446 119.513 31.8446C138.673 31.8446 154.205 47.3808 154.205 66.5416" fill="#FFCC00"/>
<path d="M69.3976 65.7711C69.3976 84.9295 53.8668 100.466 34.7036 100.466C15.5458 100.466 0.0120239 84.9295 0.0120239 65.7717C0.0120239 46.6115 15.5458 31.0747 34.7036 31.0747C53.8662 31.0747 69.3976 46.6109 69.3976 65.7717" fill="#0089CC"/>
<path d="M138.787 115.113C138.787 134.273 123.255 149.807 104.09 149.807C84.9319 149.807 69.3982 134.273 69.3982 115.113C69.3982 95.9524 84.9319 80.4187 104.09 80.4187C123.255 80.4187 138.787 95.9524 138.787 115.113Z" fill="#009939"/>
<path d="M111.802 34.9302C111.802 54.0904 96.2686 69.6248 77.1084 69.6248C57.9482 69.6248 42.4144 54.0904 42.4144 34.9302C42.4144 15.7699 57.9482 0.236206 77.1084 0.236206C96.2686 0.236206 111.802 15.7699 111.802 34.9302" fill="#BF0000"/>
<path d="M84.8187 66.5416C84.8187 67.2711 84.882 67.9856 84.9278 68.7055C100.317 65.1555 111.801 51.3964 111.801 34.9296C111.801 34.1994 111.738 33.4826 111.693 32.7627C96.3037 36.3157 84.8187 50.0741 84.8187 66.5416" fill="#FC0007"/>
<path d="M89.3958 83.7205C95.3747 94.1723 106.61 101.235 119.514 101.235C124.773 101.235 129.741 100.03 134.209 97.9338C128.233 87.482 116.997 80.4193 104.09 80.4193C98.8313 80.4193 93.8638 81.6247 89.3958 83.7205" fill="#1CD306"/>
<path d="M69.3976 115.113C69.3976 123.589 72.4446 131.346 77.4952 137.371C82.541 131.346 85.588 123.589 85.588 115.113C85.588 106.636 82.541 98.8796 77.4952 92.8549C72.4446 98.879 69.3976 106.636 69.3976 115.113" fill="#0F7504"/>
<path d="M20.9681 97.6248C25.3041 99.5012 29.979 100.468 34.7036 100.465C47.4807 100.465 58.6121 93.5404 64.6343 83.2585C60.2981 81.3829 55.6233 80.4168 50.8988 80.4199C38.1217 80.4199 26.988 87.3452 20.9681 97.6248" fill="#0C5E87"/>
<path d="M42.5632 32.0037C42.4813 32.9699 42.4126 33.9416 42.4126 34.9308C42.4126 51.385 53.8801 65.1308 69.2512 68.6964C69.3295 67.7302 69.3987 66.7585 69.3987 65.7717C69.3987 49.3175 57.9337 35.5669 42.5632 32.0037Z" fill="#6B0001"/>
<path d="M45.8012 110.819H40.3741C35.5832 110.819 31.6874 106.936 31.6874 102.158V53.0337C31.6874 48.2548 35.5832 44.3687 40.3741 44.3687H108.428C113.219 44.3687 117.113 48.2548 117.113 53.0337V102.158C117.113 106.936 113.219 110.82 108.428 110.82H85.2446L38.7289 133.622L45.8012 110.82V110.819Z" fill="white"/>
</g>
<defs>
<clipPath id="clip0_25:14">
<rect width="154.217" height="150" fill="white"/>
</clipPath>
</defs>
</svg>
