<svg width="151" height="151" viewBox="0 0 151 151" fill="none" xmlns="http://www.w3.org/2000/svg">
<g clip-path="url(#clip0_5:627)">
<path d="M70.1243 0.24458C69.7993 0.27583 68.7743 0.38208 67.8493 0.45083C46.5493 2.37583 26.5993 13.8696 13.9493 31.5383C6.96369 41.2366 2.42255 52.4779 0.711804 64.3071C0.111804 68.4321 0.0368042 69.6446 0.0368042 75.2321C0.0368042 80.8196 0.111804 82.0383 0.711804 86.1571C4.7868 114.326 24.8368 137.988 52.0181 146.757C56.8868 148.326 62.0181 149.395 67.8493 150.045C70.1243 150.295 79.9493 150.295 82.2243 150.045C92.2931 148.926 100.831 146.432 109.243 142.138C110.537 141.482 110.787 141.301 110.612 141.157C110.487 141.07 104.993 133.695 98.3931 124.782L86.3993 108.576L71.3743 86.3321C66.3751 78.8921 61.3291 71.4837 56.2368 64.1071C56.1806 64.0883 56.1243 73.9696 56.0931 86.0446C56.0493 107.17 56.0306 108.02 55.7681 108.52C55.512 109.103 55.0552 109.575 54.4806 109.851C54.0118 110.088 53.6056 110.132 51.3868 110.132H48.8493L48.1743 109.707C47.7566 109.443 47.4177 109.072 47.1931 108.632L46.8806 107.976L46.9118 78.5758L46.9556 49.1633L47.4118 48.5883C47.719 48.2289 48.0871 47.9263 48.4993 47.6946C49.0993 47.4008 49.3306 47.3758 51.8743 47.3758C54.8618 47.3758 55.3618 47.4883 56.1368 48.3383C56.3556 48.5758 64.4931 60.8383 74.2306 75.6008L103.818 120.426L115.693 138.413L116.299 138.02C122.014 134.22 127.196 129.674 131.706 124.501C141.157 113.684 147.287 100.371 149.362 86.1571C149.962 82.0321 150.037 80.8196 150.037 75.2321C150.037 69.6446 149.962 68.4321 149.362 64.3071C145.287 36.1446 125.237 12.4758 98.0555 3.70708C92.9754 2.09189 87.7444 0.996688 82.4431 0.43833C81.0306 0.28833 71.3431 0.12583 70.1306 0.25083L70.1243 0.24458ZM100.831 45.6196C101.179 45.7951 101.489 46.0379 101.744 46.334C101.998 46.6301 102.191 46.9735 102.312 47.3446C102.424 47.7196 102.456 55.8758 102.424 74.2508L102.381 100.613L97.7368 93.4883L93.0743 86.3633V67.2008C93.0743 54.8071 93.1306 47.8446 93.2181 47.5071C93.3221 47.1167 93.5042 46.7515 93.7535 46.4335C94.0027 46.1155 94.3138 45.8514 94.6681 45.6571C95.2743 45.3446 95.493 45.3196 97.7931 45.3196C99.9618 45.3196 100.343 45.3508 100.831 45.6133V45.6196Z" fill="white"/>
</g>
<defs>
<clipPath id="clip0_5:627">
<rect width="150" height="150" fill="white" transform="translate(0.0368042 0.20752)"/>
</clipPath>
</defs>
</svg>
