<svg width="151" height="151" viewBox="0 0 151 151" fill="none" xmlns="http://www.w3.org/2000/svg">
<path d="M27.97 115.915L44.3293 12.79C44.3518 12.3845 44.4576 11.988 44.6402 11.6252C44.8228 11.2625 45.0782 10.9413 45.3906 10.6817C45.7029 10.4222 46.0654 10.2298 46.4555 10.1167C46.8455 10.0036 47.2547 9.97217 47.6575 10.0244C48.1068 10.0958 48.5325 10.2734 48.8994 10.5425C49.2663 10.8115 49.5637 11.1642 49.7668 11.5712L66.595 42.8369L73.2512 30.1806C73.4169 29.8235 73.6522 29.5031 73.9435 29.2383C74.2348 28.9735 74.5761 28.7695 74.9473 28.6385C75.3185 28.5075 75.7122 28.452 76.1052 28.4754C76.4981 28.4987 76.8825 28.6003 77.2356 28.7744C77.7861 29.0443 78.2313 29.4895 78.5012 30.04L123.595 115.868L27.97 115.915Z" fill="#F9A01B"/>
<path opacity="0.12" d="M83.3291 10.7744L4.29785 4.07129L4.29785 147.274L27.9697 115.915L83.3291 10.7744Z" fill="url(#paint0_linear_5:596)"/>
<path d="M83.9387 75.6495L66.4543 42.837L27.97 115.915L83.9387 75.6495Z" fill="#F47D20"/>
<path d="M123.595 115.915L111.079 39.3684C110.931 38.5912 110.486 37.9023 109.838 37.4474C109.191 36.9925 108.392 36.8072 107.611 36.9309C106.998 37.0189 106.434 37.3172 106.017 37.7746L27.97 115.915L71.1418 140.103C72.4608 140.887 73.9668 141.301 75.5012 141.301C77.0356 141.301 78.5416 140.887 79.8606 140.103L123.595 115.915Z" fill="#FFCB2A"/>
<path d="M111.079 39.3682C110.931 38.591 110.486 37.9021 109.838 37.4472C109.191 36.9923 108.392 36.8071 107.611 36.9307C106.998 37.0188 106.434 37.317 106.017 37.7745L90.5012 53.2901L78.3606 30.1338C78.1954 29.7824 77.9615 29.4677 77.6726 29.2081C77.3838 28.9486 77.0459 28.7497 76.6788 28.6229C76.3118 28.4962 75.923 28.4443 75.5356 28.4704C75.1482 28.4964 74.7699 28.5998 74.4231 28.7745C73.8636 29.0317 73.4147 29.4806 73.1575 30.0401L66.595 42.837L49.8137 11.6182C49.4365 10.9263 48.8022 10.4106 48.0479 10.1826C47.2936 9.95452 46.4798 10.0324 45.7825 10.3995C45.3896 10.6268 45.0515 10.9378 44.7923 11.3105C44.533 11.6831 44.359 12.1083 44.2825 12.5557L27.97 115.915L28.3918 116.149L90.6418 54.0401L106.157 38.5245C106.436 38.2424 106.769 38.0185 107.135 37.8657C107.501 37.7129 107.894 37.6342 108.29 37.6342C108.687 37.6342 109.08 37.7129 109.446 37.8657C109.812 38.0185 110.144 38.2424 110.423 38.5245C110.852 38.9573 111.131 39.5156 111.22 40.1182L123.642 115.962L111.079 39.3682ZM27.97 115.821L44.3293 13.3057C44.3751 12.9243 44.4972 12.556 44.6885 12.2229C44.8797 11.8897 45.1361 11.5985 45.4423 11.3666C45.7486 11.1348 46.0984 10.967 46.471 10.8733C46.8435 10.7796 47.2311 10.7619 47.6106 10.8213C48.0683 10.8857 48.5035 11.0601 48.879 11.3295C49.2546 11.5989 49.5592 11.9553 49.7668 12.3682L66.5012 43.4932L73.1575 30.8838C73.3316 30.5348 73.5731 30.2237 73.8681 29.9686C74.163 29.7134 74.5057 29.5192 74.8761 29.3972C75.2466 29.2751 75.6375 29.2277 76.0264 29.2576C76.4153 29.2875 76.7944 29.3941 77.1418 29.5713C77.7148 29.8326 78.1672 30.3017 78.4075 30.8838L90.3606 53.5245L27.97 115.821Z" fill="white" fill-opacity="0.2"/>
<path opacity="0.2" d="M80.0475 139.446C78.7029 140.152 77.2069 140.521 75.6881 140.521C74.1693 140.521 72.6733 140.152 71.3287 139.446L28.485 115.259V115.915L71.6569 140.102C72.9846 140.886 74.4981 141.299 76.0397 141.299C77.5813 141.299 79.0947 140.886 80.4225 140.102L124.157 115.915V115.259L80.0475 139.446Z" fill="#A52A22"/>
<path d="M111.079 39.3682C110.931 38.5911 110.486 37.9022 109.838 37.4472C109.191 36.9923 108.392 36.8071 107.611 36.9307C106.998 37.0188 106.434 37.317 106.017 37.7745L90.5012 53.2901L78.3606 30.1338C78.1954 29.7824 77.9615 29.4677 77.6726 29.2082C77.3838 28.9486 77.0459 28.7497 76.6788 28.6229C76.3118 28.4962 75.923 28.4443 75.5356 28.4704C75.1482 28.4964 74.7699 28.5998 74.4231 28.7745C73.8636 29.0317 73.4147 29.4806 73.1575 30.0401L66.595 42.837L49.8137 11.6182C49.4365 10.9263 48.8022 10.4106 48.0479 10.1826C47.2936 9.95452 46.4798 10.0324 45.7825 10.3995C45.3896 10.6268 45.0515 10.9378 44.7923 11.3105C44.533 11.6831 44.359 12.1083 44.2825 12.5557L27.97 115.915L71.1418 140.103C72.4608 140.887 73.9668 141.3 75.5012 141.3C77.0356 141.3 78.5416 140.887 79.8606 140.103L123.642 115.915L111.079 39.3682Z" fill="url(#paint1_linear_5:596)"/>
<path d="M111.688 141.275C128.153 141.275 141.5 127.927 141.5 111.462C141.5 94.9972 128.153 81.6497 111.688 81.6497C95.2227 81.6497 81.8752 94.9972 81.8752 111.462C81.8752 127.927 95.2227 141.275 111.688 141.275Z" fill="white"/>
<path fill-rule="evenodd" clip-rule="evenodd" d="M111.688 96.5557C108.74 96.5557 105.858 97.4299 103.407 99.0678C100.956 100.706 99.045 103.034 97.9168 105.758C96.7886 108.481 96.4934 111.478 97.0685 114.37C97.6437 117.262 99.0634 119.918 101.148 122.002C103.233 124.087 105.889 125.507 108.78 126.082C111.672 126.657 114.669 126.362 117.393 125.233C120.117 124.105 122.445 122.195 124.082 119.743C125.72 117.292 126.595 114.41 126.595 111.462C126.601 109.511 126.223 107.577 125.481 105.772C124.74 103.967 123.651 102.325 122.276 100.941C120.9 99.5568 119.265 98.4571 117.465 97.7047C115.665 96.9522 113.733 96.5618 111.782 96.5557H111.688ZM110.188 123.274C107.301 122.93 104.64 121.536 102.713 119.358C100.786 117.18 99.7262 114.37 99.7352 111.462C99.7286 110.545 99.8389 109.632 100.063 108.743L107.188 115.915V117.415C107.188 118.211 107.504 118.974 108.067 119.536C108.63 120.099 109.393 120.415 110.188 120.415V123.274ZM120.454 119.384C120.265 118.786 119.89 118.264 119.385 117.893C118.879 117.522 118.269 117.322 117.641 117.321H116.141V113.149C116.141 112.752 115.983 112.37 115.702 112.089C115.421 111.807 115.039 111.649 114.641 111.649H105.688V108.462H108.641C108.842 108.468 109.042 108.434 109.23 108.361C109.417 108.289 109.588 108.179 109.733 108.039C109.877 107.9 109.992 107.732 110.07 107.547C110.148 107.362 110.188 107.163 110.188 106.962V104.009H113.188C113.968 103.974 114.706 103.645 115.254 103.088C115.802 102.532 116.119 101.789 116.141 101.009V100.399C119.074 101.595 121.412 103.905 122.642 106.823C123.872 109.741 123.895 113.028 122.704 115.962C122.19 117.258 121.443 118.45 120.501 119.478L120.454 119.384Z" fill="#010101" fill-opacity="0.54"/>
<defs>
<linearGradient id="paint0_linear_5:596" x1="46.7197" y1="80.5244" x2="40.7666" y2="77.3838" gradientUnits="userSpaceOnUse">
<stop stop-color="#A52A22"/>
<stop offset="0.4" stop-color="#A52A22" stop-opacity="0.5"/>
<stop offset="0.8" stop-color="#A52A22" stop-opacity="0"/>
</linearGradient>
<linearGradient id="paint1_linear_5:596" x1="25.4387" y1="33.2276" x2="125.142" y2="132.931" gradientUnits="userSpaceOnUse">
<stop stop-color="white" stop-opacity="0.1"/>
<stop offset="1" stop-color="white" stop-opacity="0"/>
</linearGradient>
</defs>
</svg>
