<svg width="209" height="151" viewBox="0 0 209 151" fill="none" xmlns="http://www.w3.org/2000/svg">
<g clip-path="url(#clip0_5:591)">
<path d="M204.076 57.8093C199.402 54.566 188.69 53.3498 180.316 54.9714C179.343 46.8633 174.863 39.7695 167.073 33.4858L162.594 30.2425L159.477 34.9047C155.583 40.9858 153.635 49.4993 154.219 57.6074C154.414 60.4444 155.388 65.512 158.309 69.9714C155.583 71.5931 149.935 73.6201 142.535 73.6201H1.72927L1.34008 75.2417C-0.0237077 83.349 -0.0237083 108.686 15.946 128.145C28.0206 142.941 45.9379 150.441 69.5025 150.441C120.527 150.441 158.309 125.914 176.032 81.5247C183.043 81.7274 198.039 81.5247 205.634 66.322C205.829 65.9166 206.218 65.1058 207.581 62.066L208.36 60.4444L204.076 57.8093ZM114.295 0.649536H92.8733V20.919H114.295V0.649536ZM114.295 24.9731H92.8733V45.2425H114.295V24.9722V24.9731ZM88.9774 24.9731H67.5557V45.2425H88.9774V24.9722V24.9731ZM63.6598 24.9731H42.2374V45.2425H63.6598V24.9722V24.9731ZM38.3422 49.2966H16.9198V69.566H38.3414V49.2958L38.3422 49.2966ZM63.6598 49.2966H42.2374V69.566H63.6598V49.2958V49.2966ZM88.9774 49.2966H67.5557V69.566H88.9774V49.2958V49.2966ZM114.296 49.2966H92.8725V69.566H114.296V49.2958V49.2966ZM139.613 49.2966H118.19V69.566H139.613V49.2958V49.2966Z" fill="#2396ED"/>
</g>
<defs>
<clipPath id="clip0_5:591">
<rect width="207.568" height="150" fill="white" transform="translate(0.792725 0.649536)"/>
</clipPath>
</defs>
</svg>
