<svg width="245" height="150" viewBox="0 0 245 150" fill="none" xmlns="http://www.w3.org/2000/svg">
<path d="M120.802 149.567C119.974 149.567 119.201 149.347 118.483 148.96L111.14 144.599C110.036 143.991 110.588 143.77 110.92 143.66C112.41 143.163 112.686 143.052 114.232 142.17C114.398 142.059 114.619 142.114 114.784 142.224L120.416 145.592C120.637 145.703 120.913 145.703 121.078 145.592L143.108 132.839C143.328 132.728 143.439 132.507 143.439 132.231V106.779C143.439 106.503 143.328 106.282 143.108 106.171L121.078 93.473C120.858 93.3622 120.581 93.3622 120.416 93.473L98.3867 106.171C98.166 106.282 98.0551 106.558 98.0551 106.779V132.231C98.0551 132.452 98.166 132.728 98.3867 132.839L104.405 136.317C107.662 137.973 109.705 136.041 109.705 134.108V108.987C109.705 108.656 109.981 108.324 110.368 108.324H113.183C113.515 108.324 113.846 108.601 113.846 108.987V134.108C113.846 138.47 111.472 141.01 107.331 141.01C106.061 141.01 105.067 141.01 102.251 139.629L96.4544 136.317C95.0188 135.489 94.1356 133.942 94.1356 132.286V106.834C94.1356 105.178 95.0188 103.631 96.4544 102.804L118.483 90.0498C119.864 89.2769 121.741 89.2769 123.121 90.0498L145.15 102.804C146.586 103.631 147.47 105.178 147.47 106.834V132.286C147.47 133.942 146.586 135.489 145.15 136.317L123.121 149.07C122.403 149.402 121.576 149.567 120.803 149.567H120.802ZM127.593 132.066C117.932 132.066 115.944 127.649 115.944 123.894C115.944 123.563 116.22 123.232 116.606 123.232H119.477C119.808 123.232 120.085 123.453 120.085 123.784C120.526 126.71 121.796 128.146 127.649 128.146C132.286 128.146 134.274 127.096 134.274 124.612C134.274 123.176 133.722 122.128 126.489 121.41C120.471 120.802 116.717 119.478 116.717 114.674C116.717 110.202 120.472 107.552 126.765 107.552C133.832 107.552 137.311 109.981 137.753 115.281C137.753 115.447 137.697 115.612 137.587 115.778C137.476 115.888 137.311 115.999 137.145 115.999H134.274C133.998 115.999 133.722 115.778 133.667 115.502C133.004 112.466 131.293 111.472 126.765 111.472C121.686 111.472 121.078 113.239 121.078 114.563C121.078 116.165 121.796 116.661 128.642 117.545C135.433 118.428 138.636 119.698 138.636 124.446C138.58 129.305 134.605 132.066 127.593 132.066Z" fill="#539E43"/>
<path d="M52.4508 50.0218C52.4508 49.0282 51.8986 48.089 51.0153 47.5922L27.6057 34.1208C27.2188 33.8997 26.7774 33.7893 26.336 33.7339H26.1148C25.6734 33.7339 25.2315 33.8997 24.8451 34.1208L1.43551 47.5922C0.551752 48.089 0 49.0277 0 50.0218L0.055414 86.2401C0.055414 86.7369 0.331529 87.2337 0.77293 87.4549C1.21481 87.731 1.76656 87.731 2.1535 87.4549L16.0667 79.5044C16.95 79.0076 17.5022 78.0689 17.5022 77.0753V60.1253C17.5022 59.1317 18.054 58.193 18.9377 57.6961L24.8451 54.2729C25.2869 53.9968 25.7838 53.886 26.2806 53.886C26.7774 53.886 27.2742 53.9968 27.6611 54.2729L33.5685 57.6961C34.4522 58.193 35.004 59.1312 35.004 60.1253V77.0753C35.004 78.0689 35.5562 79.0076 36.4395 79.5044L50.3527 87.4549C50.7946 87.731 51.3463 87.731 51.7882 87.4549C52.2301 87.2337 52.5062 86.7369 52.5062 86.2401L52.4508 50.0218Z" fill="white"/>
<path d="M164.971 0.165884C164.53 -0.0552946 163.978 -0.0552946 163.591 0.165884C163.149 0.441998 162.873 0.8834 162.873 1.38021V37.2679C162.873 37.599 162.708 37.93 162.376 38.1512C162.045 38.3165 161.714 38.3165 161.383 38.1512L155.53 34.7834C155.101 34.5391 154.616 34.4106 154.122 34.4106C153.629 34.4106 153.143 34.5391 152.714 34.7834L129.305 48.3101C128.421 48.807 127.869 49.7457 127.869 50.7393V77.7374C127.869 78.731 128.421 79.6702 129.305 80.167L152.714 93.6937C153.143 93.938 153.629 94.0665 154.122 94.0665C154.616 94.0665 155.101 93.938 155.53 93.6937L178.94 80.167C179.823 79.6702 180.375 78.7315 180.375 77.7374V10.4352C180.375 9.38611 179.823 8.44789 178.94 7.9506L164.972 0.165884H164.971ZM162.818 68.8487C162.818 69.1248 162.708 69.3455 162.487 69.4558L154.481 74.0934C154.369 74.148 154.247 74.1763 154.122 74.1763C153.998 74.1763 153.875 74.148 153.763 74.0934L145.758 69.4558C145.537 69.3455 145.426 69.0694 145.426 68.8487V59.573C145.426 59.2969 145.537 59.0762 145.758 58.9659L153.763 54.3278C153.875 54.2733 153.998 54.2449 154.122 54.2449C154.247 54.2449 154.369 54.2733 154.481 54.3278L162.487 58.9659C162.708 59.0757 162.818 59.3523 162.818 59.573V68.8487Z" fill="white"/>
<path d="M242.874 59.3523C243.758 58.8555 244.255 57.9168 244.255 56.9227V50.3528C244.255 49.3592 243.703 48.4205 242.874 47.9237L219.631 34.4523C219.202 34.2081 218.716 34.0797 218.223 34.0797C217.729 34.0797 217.244 34.2081 216.815 34.4523L193.405 47.9786C192.522 48.4754 191.97 49.4141 191.97 50.4082V77.4063C191.97 78.3999 192.522 79.3386 193.405 79.8354L216.649 93.0861C217.533 93.5829 218.582 93.5829 219.41 93.0861L233.488 85.2469C233.93 85.0257 234.206 84.5289 234.206 84.0321C234.206 83.5353 233.93 83.0385 233.488 82.8173L209.969 69.2906C209.527 69.0149 209.251 68.573 209.251 68.0762V59.6289C209.251 59.1321 209.527 58.6353 209.969 58.4141L217.312 54.2179C217.527 54.0827 217.776 54.0109 218.03 54.0109C218.284 54.0109 218.532 54.0827 218.747 54.2179L226.09 58.4141C226.532 58.6902 226.808 59.1316 226.808 59.6289V66.2542C226.808 66.7511 227.084 67.2479 227.526 67.4686C227.968 67.7447 228.519 67.7447 228.961 67.4686L242.874 59.3523Z" fill="white"/>
<path d="M217.864 58.0826C217.946 58.0286 218.042 57.9999 218.14 57.9999C218.238 57.9999 218.334 58.0286 218.416 58.0826L222.888 60.6775C223.054 60.7873 223.164 60.9531 223.164 61.1743V66.3641C223.164 66.5848 223.054 66.7505 222.888 66.8609L218.416 69.4558C218.334 69.5097 218.238 69.5385 218.14 69.5385C218.042 69.5385 217.946 69.5097 217.864 69.4558L213.392 66.8609C213.226 66.7505 213.116 66.5848 213.116 66.3641V61.1743C213.116 60.9531 213.226 60.7873 213.392 60.6775L217.864 58.0826Z" fill="#539E43"/>
<mask id="mask0_5_643" style="mask-type:alpha" maskUnits="userSpaceOnUse" x="64" y="34" width="53" height="60">
<path d="M91.5955 34.5627C91.1665 34.3185 90.6813 34.1901 90.1877 34.1901C89.694 34.1901 89.2089 34.3185 88.7799 34.5627L65.5361 47.9782C64.6523 48.475 64.1555 49.4137 64.1555 50.4073V77.2956C64.1555 78.2892 64.7077 79.2279 65.5361 79.7247L88.7799 93.1411C89.2089 93.3853 89.694 93.5137 90.1877 93.5137C90.6813 93.5137 91.1665 93.3853 91.5955 93.1411L114.84 79.7247C115.723 79.2279 116.22 78.2892 116.22 77.2956V50.4078C116.22 49.4142 115.668 48.4755 114.84 47.9787L91.5955 34.5627Z" fill="white"/>
</mask>
<g mask="url(#mask0_5_643)">
<path d="M91.5955 34.5627C91.1665 34.3185 90.6813 34.1901 90.1877 34.1901C89.694 34.1901 89.2089 34.3185 88.7799 34.5627L65.5361 47.9782C64.6523 48.475 64.1555 49.4137 64.1555 50.4073V77.2956C64.1555 78.2892 64.7077 79.2279 65.5361 79.7247L88.7799 93.1411C89.2089 93.3853 89.694 93.5137 90.1877 93.5137C90.6813 93.5137 91.1665 93.3853 91.5955 93.1411L114.84 79.7247C115.723 79.2279 116.22 78.2892 116.22 77.2956V50.4078C116.22 49.4142 115.668 48.4755 114.84 47.9787L91.5955 34.5627Z" fill="url(#paint0_linear_5_643)"/>
<path d="M114.895 47.9787L91.5406 34.5627C91.3111 34.4469 91.0706 34.3544 90.8226 34.2866L64.6523 79.1185C64.8691 79.3831 65.1309 79.6074 65.4258 79.781L88.7799 93.1974C89.4425 93.5839 90.2154 93.6943 90.9329 93.4731L115.502 48.5314C115.337 48.3107 115.115 48.1444 114.895 47.9791V47.9787Z" fill="url(#paint1_linear_5_643)"/>
<path fill-rule="evenodd" clip-rule="evenodd" d="M114.95 79.7252C115.613 79.3387 116.109 78.6761 116.331 77.9586L90.7117 34.2312C90.0491 34.1209 89.3311 34.1758 88.7244 34.5623L65.5356 47.9237L90.5459 93.528C90.9096 93.4685 91.2629 93.357 91.5949 93.197L114.95 79.7256L114.95 79.7252Z" fill="url(#paint2_linear_5_643)"/>
<path fill-rule="evenodd" clip-rule="evenodd" d="M114.95 79.7252L91.6509 93.1416C91.3219 93.3093 90.9674 93.4212 90.6018 93.4726L91.0437 94.301L116.882 79.3392V79.0077L116.22 77.9032C116.109 78.6761 115.613 79.3387 114.95 79.7252Z" fill="url(#paint3_linear_5_643)"/>
<path fill-rule="evenodd" clip-rule="evenodd" d="M114.95 79.7252L91.6509 93.1416C91.3219 93.3093 90.9674 93.4212 90.6018 93.4726L91.0437 94.301L116.882 79.3392V79.0077L116.22 77.9032C116.109 78.6761 115.613 79.3387 114.95 79.7252Z" fill="url(#paint4_linear_5_643)"/>
</g>
<defs>
<linearGradient id="paint0_linear_5_643" x1="99.6575" y1="44.564" x2="74.18" y2="84.5966" gradientUnits="userSpaceOnUse">
<stop stop-color="#41873F"/>
<stop offset="0.3288" stop-color="#418B3D"/>
<stop offset="0.6352" stop-color="#419637"/>
<stop offset="0.9319" stop-color="#3FA92D"/>
<stop offset="1" stop-color="#3FAE2A"/>
</linearGradient>
<linearGradient id="paint1_linear_5_643" x1="86.6587" y1="67.0014" x2="150.466" y2="32.3348" gradientUnits="userSpaceOnUse">
<stop offset="0.1376" stop-color="#41873F"/>
<stop offset="0.4032" stop-color="#54A044"/>
<stop offset="0.7136" stop-color="#66B848"/>
<stop offset="0.9081" stop-color="#6CC04A"/>
</linearGradient>
<linearGradient id="paint2_linear_5_643" x1="63.3062" y1="63.8527" x2="117.092" y2="63.8527" gradientUnits="userSpaceOnUse">
<stop offset="0.09192" stop-color="#6CC04A"/>
<stop offset="0.2864" stop-color="#66B848"/>
<stop offset="0.5968" stop-color="#54A044"/>
<stop offset="0.8624" stop-color="#41873F"/>
</linearGradient>
<linearGradient id="paint3_linear_5_643" x1="63.3065" y1="86.1472" x2="117.092" y2="86.1472" gradientUnits="userSpaceOnUse">
<stop offset="0.09192" stop-color="#6CC04A"/>
<stop offset="0.2864" stop-color="#66B848"/>
<stop offset="0.5968" stop-color="#54A044"/>
<stop offset="0.8624" stop-color="#41873F"/>
</linearGradient>
<linearGradient id="paint4_linear_5_643" x1="124.928" y1="43.2926" x2="111.302" y2="114.692" gradientUnits="userSpaceOnUse">
<stop stop-color="#41873F"/>
<stop offset="0.3288" stop-color="#418B3D"/>
<stop offset="0.6352" stop-color="#419637"/>
<stop offset="0.9319" stop-color="#3FA92D"/>
<stop offset="1" stop-color="#3FAE2A"/>
</linearGradient>
</defs>
</svg>
