<svg width="153" height="151" viewBox="0 0 153 151" fill="none" xmlns="http://www.w3.org/2000/svg">
<path d="M149.542 0.571167L49.3898 0.571167V50.7893H98.6696C99.5129 50.7894 100.322 51.1245 100.918 51.7208C101.514 52.3172 101.849 53.1259 101.849 53.9692V102.571H152.721V3.75705C152.722 3.33895 152.64 2.92481 152.481 2.53831C152.322 2.15182 152.088 1.80056 151.792 1.50465C151.497 1.20874 151.146 0.973971 150.76 0.813793C150.374 0.653614 149.96 0.571166 149.542 0.571167V0.571167Z" fill="#8E75FF"/>
<path opacity="0.405" d="M49.384 0.571167V50.7893H2.4007C2.08509 50.7887 1.77678 50.6943 1.5149 50.5181C1.25301 50.342 1.04936 50.092 0.929783 49.7999C0.810207 49.5078 0.780097 49.1867 0.843275 48.8775C0.906453 48.5682 1.06007 48.2847 1.28463 48.063L49.384 0.571167ZM104.558 150.115C104.335 150.334 104.051 150.483 103.743 150.542C103.435 150.602 103.117 150.569 102.828 150.448C102.538 150.327 102.291 150.123 102.117 149.862C101.943 149.601 101.85 149.295 101.85 148.981V102.571H152.722L104.558 150.109V150.115V150.115Z" fill="#8E75FF"/>
<path opacity="0.405" d="M49.3839 50.7893H100.262C100.683 50.7899 101.086 50.9573 101.384 51.2548C101.681 51.5523 101.849 51.9556 101.849 52.3763V102.571H52.5696C52.152 102.571 51.7385 102.489 51.3528 102.329C50.967 102.169 50.6164 101.935 50.3212 101.64C50.0259 101.345 49.7917 100.994 49.6319 100.608C49.4721 100.222 49.3898 99.8089 49.3898 99.3913V50.7893H49.3839Z" fill="#8E75FF"/>
</svg>
