<svg width="151" height="151" viewBox="0 0 151 151" fill="none" xmlns="http://www.w3.org/2000/svg">
<g clip-path="url(#clip0_5:614)">
<path fill-rule="evenodd" clip-rule="evenodd" d="M75.3602 0.649658C33.9227 0.649658 0.360229 34.2122 0.360229 75.6497C0.360229 108.837 21.829 136.868 51.6415 146.806C55.3915 147.462 56.7977 145.212 56.7977 143.243C56.7977 141.462 56.704 135.556 56.704 129.275C37.8602 132.743 32.9852 124.681 31.4852 120.462C30.6415 118.306 26.9852 111.65 23.7977 109.868C21.1727 108.462 17.4227 104.993 23.704 104.9C29.6102 104.806 33.829 110.337 35.2352 112.587C41.9852 123.931 52.7665 120.743 57.079 118.775C57.7352 113.9 59.704 110.618 61.8602 108.743C45.1727 106.868 27.7352 100.4 27.7352 71.7122C27.7352 63.5559 30.6415 56.8059 35.4227 51.5559C34.6727 49.6809 32.0477 41.9934 36.1727 31.6809C36.1727 31.6809 42.454 29.7122 56.7977 39.3684C62.7977 37.6809 69.1727 36.8372 75.5477 36.8372C81.9227 36.8372 88.2977 37.6809 94.2977 39.3684C108.641 29.6184 114.923 31.6809 114.923 31.6809C119.048 41.9934 116.423 49.6809 115.673 51.5559C120.454 56.8059 123.36 63.4622 123.36 71.7122C123.36 100.493 105.829 106.868 89.1415 108.743C91.8602 111.087 94.204 115.587 94.204 122.618C94.204 132.65 94.1102 140.712 94.1102 143.243C94.1102 145.212 95.5165 147.556 99.2665 146.806C114.155 141.779 127.093 132.21 136.258 119.446C145.424 106.681 150.356 91.3639 150.36 75.6497C150.36 34.2122 116.798 0.649658 75.3602 0.649658Z" fill="white"/>
</g>
<defs>
<clipPath id="clip0_5:614">
<rect width="150" height="150" fill="white" transform="translate(0.360229 0.649658)"/>
</clipPath>
</defs>
</svg>
