<svg width="1280" height="1280" viewBox="0 0 1280 1280" fill="none" xmlns="http://www.w3.org/2000/svg">
<path d="M1113.6 463.2L1116 464.8C1115.88 465.496 1115.77 466.2 1115.64 466.92C1115.38 468.552 1115.11 470.192 1114.86 471.832C1111.04 496.152 1099.42 516.712 1080.22 532.152C1078.31 533.488 1076.37 534.744 1074.41 535.992C1073.14 536.88 1071.86 537.76 1070.6 538.648C1066.14 541.776 1061.64 544.768 1057 547.688C1055.59 548.576 1054.19 549.488 1052.81 550.416H1050.41L1049.61 552.816C1048.01 553.992 1046.44 555.032 1044.76 556.064C1044.26 556.376 1043.77 556.688 1043.26 557C1042.2 557.664 1041.14 558.328 1040.07 558.984C1038.38 560.032 1036.7 561.088 1035.02 562.152C1020.62 571.192 1020.62 571.192 1018.38 571.192C1018.18 571.672 1017.98 572.16 1017.78 572.656C1016.58 574.72 1015.54 575.392 1013.49 576.576C1012.82 576.968 1012.16 577.36 1011.47 577.76C1010.77 578.168 1010.06 578.576 1009.33 578.992C1007.87 579.848 1006.41 580.696 1004.95 581.552C1004.24 581.968 1003.53 582.384 1002.79 582.816C1000.13 584.368 997.504 585.976 994.872 587.592C994.112 588.064 993.344 588.536 992.56 589.016C990.944 590.032 989.36 591.088 987.792 592.168C985.576 593.592 985.576 593.592 983.976 593.592L983.176 595.992C981.96 596.912 981.96 596.912 980.408 597.776C979.832 598.104 979.264 598.432 978.68 598.76C978.064 599.104 977.456 599.44 976.824 599.792C972.168 602.448 967.704 605.184 963.304 608.352C961.512 609.64 959.688 610.856 957.848 612.064C955.48 613.616 953.256 615.256 951.048 617.016C948.224 619.184 945.816 620.096 942.328 620.816V622.416C940.336 623.792 938.344 625.064 936.28 626.32C935.432 626.84 935.432 626.84 934.568 627.368C932.896 628.4 931.216 629.408 929.528 630.416C928.992 630.736 928.464 631.056 927.912 631.384C924.12 633.616 924.12 633.616 922.328 633.616V635.216C920.648 636.392 918.984 637.464 917.224 638.512C916.744 638.816 916.264 639.112 915.768 639.416C912.144 641.616 912.144 641.616 910.328 641.616L909.528 644.016C907.576 645.24 905.656 646.344 903.624 647.416C902.456 648.056 901.288 648.696 900.12 649.336C899.544 649.656 898.968 649.968 898.368 650.296C894 652.744 889.728 655.36 885.808 658.536C883.768 660.12 882.432 660.528 879.904 660.816L880.704 663.216C880.192 663.36 879.68 663.504 879.16 663.656C878.168 663.96 878.168 663.96 877.152 664.264C876.496 664.464 875.84 664.656 875.16 664.856C874.336 665.232 874.336 665.232 873.504 665.616L872.704 668.016C868.832 670.88 864.544 673.184 859.904 674.416V676.016C858.648 676.904 858.648 676.904 856.888 677.872C856.248 678.232 855.608 678.592 854.944 678.96C854.256 679.344 853.568 679.72 852.856 680.112C847.664 683.04 842.776 686.08 837.976 689.712C835.488 691.528 832.936 693.176 830.32 694.8C829.472 695.328 828.624 695.848 827.752 696.392C825.824 697.456 824.368 697.944 822.272 698.448L821.472 700.048C820.256 700.888 819.016 701.688 817.752 702.464C814.144 704.712 810.576 707.016 807.032 709.384C806.544 709.712 806.056 710.04 805.552 710.376C804.544 711.056 803.528 711.728 802.52 712.408C769 734.808 769 734.808 762.84 737.688C761.152 738.472 761.152 738.472 759.824 740.864C758.224 741.4 756.624 741.936 755.024 742.464C752.776 743.96 752.776 743.96 750.576 745.76C744.56 750.408 738.176 755.04 731.056 757.68V759.28C728.728 760.912 727.536 761.68 724.656 761.68V763.28C723.128 764.32 723.128 764.32 721.056 765.48C718.392 767.024 715.888 768.592 713.456 770.48C709.32 773.672 704.816 776.824 699.856 778.48C698.208 780.92 698.056 782.96 698.064 785.864C698.056 787.144 698.056 787.144 698.048 788.448C698.056 789.376 698.064 790.312 698.064 791.28V794.288C698.056 797.048 698.064 799.808 698.072 802.608C698.08 805.592 698.08 808.568 698.08 811.568C698.072 816.728 698.08 821.888 698.088 827.088C698.096 835.248 698.088 843.408 698.08 851.568C698.08 854.36 698.072 857.16 698.072 859.968V862.088C698.064 870.04 698.056 878.008 698.056 885.928V888.128C698.056 899.888 698.064 911.648 698.072 923.408C698.088 935.488 698.08 947.568 698.056 959.648C698.048 967.096 698.048 974.528 698.072 981.968C698.08 987.08 698.08 992.208 698.064 997.328C698.048 1000.28 698.048 1003.22 698.072 1006.13C698.208 1028.37 698.208 1028.37 692.656 1038.45C691.984 1039.91 691.32 1041.38 690.656 1042.85C687.44 1048.47 682.864 1052.93 678.336 1057.57C676.496 1059.44 674.68 1061.33 672.856 1063.22C671.576 1064.54 670.288 1065.86 669 1067.18C668.392 1067.82 667.776 1068.45 667.152 1069.1C666.28 1069.98 666.28 1069.98 665.392 1070.87C664.88 1071.4 664.376 1071.92 663.848 1072.46C661.968 1073.9 660.584 1074.26 658.248 1074.48C656.784 1073.02 657.344 1070.7 657.344 1068.74C657.336 1068.22 657.336 1067.69 657.336 1067.14C657.328 1065.37 657.328 1063.58 657.328 1061.81C657.328 1060.53 657.328 1059.25 657.32 1057.97C657.312 1054.43 657.312 1050.9 657.312 1047.33L657.288 1035.89C657.272 1026.69 657.264 1017.49 657.256 1008.29C657.256 1003.95 657.248 999.648 657.248 995.328C657.232 980.928 657.224 966.528 657.216 952.128C657.216 948.392 657.216 944.656 657.208 940.928V938.112C657.208 923.072 657.184 908.032 657.16 892.992C657.128 877.552 657.12 862.112 657.112 846.672C657.112 838.032 657.104 829.312 657.088 820.672C657.064 813.288 657.064 805.872 657.072 798.512C657.072 794.744 657.072 790.976 657.056 787.232C657.04 783.784 657.04 780.328 657.056 776.912C657.056 775.664 657.056 774.416 657.04 773.168C656.96 761.488 656.96 761.488 660.648 756.928C662.992 755.088 662.992 755.088 665.696 753.48C666.696 752.872 667.688 752.272 668.68 751.664C669.2 751.352 669.712 751.04 670.248 750.72C673.528 748.688 676.696 746.472 679.848 744.28C684.208 741.32 684.208 741.32 687.032 740.928V739.328C688.448 738.4 689.904 737.544 691.384 736.728C695 734.68 698.488 732.552 701.944 730.216C703.896 728.912 705.856 727.648 707.84 726.4C712.928 723.168 718 719.88 723.04 716.56C724.344 715.704 724.344 715.704 725.68 714.832C730.792 711.488 735.92 708.112 740.96 704.752C742.68 703.608 744.424 702.488 746.184 701.4C752.472 697.472 752.472 697.472 756.184 691.24C762.168 663.64 760.752 635.8 749.488 609.64C749.096 608.736 748.704 607.832 748.304 606.896C742.576 594.656 734.544 583.536 725.024 573.936C723.968 572.864 722.936 571.76 721.904 570.656C716.928 565.416 711.504 561.616 705.504 557.616C704.432 556.824 703.36 556.032 702.304 555.216C707.464 555.616 711.744 556.584 716.544 558.464C717.192 558.712 717.848 558.96 718.512 559.216C720.576 560.008 722.64 560.808 724.696 561.616C726.064 562.136 727.424 562.664 728.792 563.184C736.648 566.232 744.232 569.576 751.672 573.504C753.656 574.536 755.664 575.544 757.664 576.544C783.584 589.664 807.424 606.304 829.504 625.184C833.184 628.32 836.912 631.392 840.704 634.384C841.272 634.848 841.84 635.312 842.432 635.784C843.88 636.976 843.88 636.976 845.856 636.736C847.952 636.096 847.952 636.096 849.544 634.648C852.76 632.112 856.192 630.008 859.624 627.832C866.528 623.472 873.384 619.032 880.264 614.552C881.144 613.976 882.032 613.392 882.936 612.8C888.136 609.392 893.336 605.96 898.456 602.48C901.832 600.224 905.24 598.032 908.696 595.864C911.776 593.904 914.84 591.92 917.896 589.936C921.752 587.432 925.616 584.944 929.496 582.488C931.968 580.92 934.416 579.328 936.848 577.688C940.696 575.096 944.648 572.656 948.608 570.232C952.296 567.952 955.848 565.504 959.408 563.008C963.032 560.488 966.72 558.088 970.448 555.688C971.256 555.16 972.056 554.64 972.888 554.096C977.984 550.792 983.128 547.536 988.248 544.336C992.392 541.768 996.408 539.08 1000.49 536.36C1003.24 534.512 1006.01 532.696 1008.81 530.936C1012.34 528.712 1015.8 526.408 1019.29 524.08C1025.73 519.752 1032.25 515.52 1038.81 511.52C1044.82 507.84 1050.65 503.992 1056.49 500C1067.45 492.416 1078.65 485.2 1090.09 478.24C1095.01 475.264 1099.77 472.104 1104.57 468.88C1107.53 466.896 1110.52 465 1113.53 463.144L1113.6 463.2Z" fill="#41725D"/>
<path d="M167.2 463.2C174.464 466.368 181.04 470.88 187.28 475.68C191.264 478.632 195.6 481.032 199.92 483.496C203.752 485.712 207.368 488.112 210.96 490.696C214.08 492.896 217.344 494.88 220.64 496.848C224.808 499.376 228.72 502.192 232.64 505.088C235.32 507.032 238.032 508.76 240.96 510.368C243.72 511.952 246.36 513.72 249.04 515.456L252.664 517.808C253.24 518.192 253.824 518.568 254.424 518.952C259.36 522.168 264.344 525.312 269.464 528.232C273.952 530.816 278.024 533.8 282.184 536.872C285.344 539.224 288.496 541.256 292.024 543.072C294.728 544.576 297.2 546.392 299.704 548.192C302.288 550.016 304.944 551.712 307.616 553.4C308.048 553.728 308.472 554.064 308.912 554.408V556.008C309.8 556.136 309.8 556.136 310.704 556.272C313.024 556.832 314.328 557.576 316.264 558.96C318.816 560.728 321.384 562.392 324.064 563.96C327.52 566.008 330.784 568.248 334.064 570.576C337.6 573.048 341.264 575.312 344.944 577.608L351.544 581.808C353.016 582.744 354.496 583.68 355.976 584.608C359.424 586.784 362.824 588.984 366.136 591.36C370.632 594.552 375.336 597.44 379.976 600.32C383.84 602.752 387.64 605.24 391.336 607.872C394.816 610.312 398.336 612.584 401.976 614.736C409.96 619.48 417.656 624.736 425.336 629.936C426.144 630.48 426.96 631.032 427.8 631.592C428.528 632.088 429.256 632.576 430 633.088C431.984 634.296 433.904 635.16 436.08 635.952C440.504 632.464 444.88 628.912 449.12 625.232C454.232 620.88 459.52 616.752 464.88 612.752C465.576 612.208 466.272 611.664 466.992 611.104C479.952 601.104 493.952 592.384 508.032 584.144C509.408 583.336 510.776 582.496 512.144 581.656C527.744 572.136 545.104 565.176 562.224 558.856C562.952 558.584 563.68 558.312 564.424 558.024C568.616 556.504 572.424 555.576 576.904 555.208C575.904 557.216 575.152 557.384 573.152 558.36C548.832 571.48 531.472 598.36 523.552 624.28C517.568 644.68 513.792 672.84 523.32 692.84C525.088 694.768 525.088 694.768 527.32 696.04C528.096 696.544 528.872 697.04 529.68 697.552C530.512 698.064 531.352 698.568 532.216 699.088C533.152 699.656 534.08 700.224 535.008 700.792C535.904 701.336 536.8 701.88 537.72 702.44C542.824 705.592 547.8 708.912 552.76 712.36C557.456 715.624 562.28 718.648 567.16 721.56C570.664 723.624 573.992 725.856 577.32 728.224C579.712 729.904 582.16 731.488 584.616 733.064C585.088 733.36 585.552 733.664 586.04 733.976C587.024 734.6 588.016 735.232 589.008 735.864C596.28 740.512 603.488 745.224 610.688 749.944C611.168 750.256 611.648 750.568 612.136 750.888C620.296 756.28 620.296 756.28 621.736 759.208C621.816 760.92 621.84 762.632 621.848 764.336C621.848 764.872 621.848 765.408 621.856 765.96C621.864 767.776 621.864 769.584 621.864 771.4C621.864 772.704 621.872 774.008 621.872 775.312C621.888 778.912 621.888 782.512 621.896 786.112C621.904 789.984 621.912 793.864 621.928 797.712C621.944 804.432 621.96 811.152 621.968 817.872C621.984 827.632 622.008 837.312 622.032 846.992C622.072 862.752 622.104 878.512 622.136 894.272C622.168 909.632 622.2 924.912 622.24 940.192C622.24 941.136 622.24 942.08 622.248 943.048C622.256 947.784 622.264 952.488 622.28 957.288C622.368 996.568 622.456 1035.85 622.536 1074.89C619.176 1073.64 617.208 1072.26 614.688 1069.69C614.056 1069.06 613.424 1068.42 612.768 1067.76C611.336 1066.09 611.336 1066.09 611.336 1064.49H609.736C608.352 1063.18 607.048 1061.86 605.736 1060.49C604.84 1059.6 603.936 1058.72 603.032 1057.84C594.472 1049.2 589.432 1040.48 584.952 1029.28C584.68 1028.63 584.408 1027.99 584.128 1027.33C582.008 1021.98 581.296 1017.49 581.376 1011.73C581.368 1010.9 581.368 1010.06 581.368 1009.2C581.36 1006.43 581.384 1003.66 581.4 1000.88C581.4 998.888 581.408 996.888 581.4 994.888C581.408 990.6 581.416 986.328 581.44 982.008C581.464 975.76 581.48 969.528 581.488 963.288C581.496 953.128 581.52 942.968 581.552 932.728C581.584 922.888 581.616 913.128 581.64 903.288V901.472C581.656 894.872 581.664 888.272 581.68 881.632V879.864L581.696 872.824C581.704 866.584 581.72 860.344 581.736 854.104C581.856 824.664 581.856 824.664 581.584 795.304L581.536 791.056C581.52 789.16 581.48 787.264 581.44 785.36C581.424 784.312 581.408 783.264 581.392 782.184C580.752 778.392 578.88 777.224 575.944 775.008C574.984 774.352 574.984 774.352 574 773.672C573.296 773.192 572.584 772.704 571.856 772.2C571.16 771.728 570.464 771.264 569.752 770.776C569.184 770.392 568.608 770 568.024 769.6C566.208 768.376 564.384 767.176 562.552 765.976C561.712 765.424 560.872 764.872 560.008 764.304C554.32 760.584 548.568 757.12 542.568 753.824C540.224 752.432 538.224 750.896 536.12 749.168C529.128 744.208 521.8 739.728 514.44 735.408C499.4 726.448 484.68 717.008 470.36 706.848C462.536 701.28 454.6 695.968 446.52 690.848C444.488 689.552 442.456 688.248 440.424 686.944C439.96 686.648 439.496 686.352 439.016 686.048C436.696 684.56 434.432 683.04 432.216 681.4C430.352 680.088 428.744 679.12 426.72 678.144C418.936 674.392 411.92 669.104 404.88 664.224C394.56 657.08 384 650.144 373.28 643.584C366.592 639.504 360.16 635.104 353.68 630.704C344.4 624.344 344.4 624.344 334.64 618.784V617.184C334.064 616.984 333.488 616.784 332.888 616.584C330.432 615.488 328.736 614.072 326.64 612.384C325.056 611.552 323.456 610.76 321.84 609.984C318.048 608.056 314.56 606.008 311.28 603.336C305.952 599.056 300 595.616 294.08 592.296C290.704 590.344 287.504 588.176 284.32 585.992L281.92 584.392V582.792C281.256 582.608 280.592 582.416 279.904 582.224C276.608 581 273.872 579.336 270.944 577.44C270.376 577.08 269.808 576.72 269.216 576.344C265.608 574.048 262.08 571.656 258.576 569.168C250.496 563.52 242.256 558.128 233.856 553.008C227.64 549.232 221.536 545.256 215.536 541.168C213.912 540.08 212.28 539 210.648 537.936C200.008 530.96 200.008 530.96 195.528 526.736V525.136C194.784 524.84 194.784 524.84 194.024 524.536C192.048 523.368 191.568 522.432 190.728 520.336H189.128C187.808 518.816 186.584 517.296 185.376 515.688C185.024 515.208 184.664 514.736 184.296 514.248C176.056 503.208 171.256 491.928 167.496 478.728C167.248 477.872 167 477.024 166.736 476.144C165.504 471.648 164.584 468.064 165.896 463.504L167.496 462.704L167.2 463.2Z" fill="#41725D"/>
<path d="M1013.6 620C1016.72 633.04 1008.79 652.4 1002.08 663.28C1000.22 666.056 998.144 668.616 995.992 671.168C995.216 672.136 994.44 673.104 993.664 674.08C986.744 682.56 978.704 688.96 969.664 695.04C967.488 696.52 965.352 698.04 963.216 699.584C959.736 702.032 956.096 704.112 952.416 706.184C947.264 709.096 942.416 712.384 937.536 715.704C935.056 717.384 932.568 719.064 930.072 720.728C929.584 721.056 929.096 721.384 928.592 721.72C924.344 724.544 920.032 727.256 915.712 729.96C912.184 732.144 908.72 734.408 905.312 736.784C904.032 737.552 904.032 737.552 902.432 737.552L901.632 739.952C899.704 741.104 899.704 741.104 897.136 742.352C892.808 744.544 888.976 747.088 885.056 750C881.144 752.952 877.24 755.68 872.976 758.16C870.624 759.52 868.352 760.992 866.072 762.48C864.8 763.184 864.8 763.184 863.2 763.184L862.4 765.584C860.576 766.344 858.736 766.8 856.824 767.312C856.024 767.64 856.024 767.64 855.2 767.984L854.4 770.384L850.4 771.184V772.784C849.976 773.008 849.544 773.232 849.104 773.464C844.944 775.704 841.104 778.2 837.264 780.944C835.28 782.336 833.264 783.64 831.208 784.936C827.16 787.48 823.208 790.12 819.208 792.784C813.92 796.32 808.568 799.8 803.208 803.184L796.608 807.384C795.144 808.312 793.68 809.24 792.208 810.152C782.928 815.16 782.928 815.16 776.048 822.392C775.968 824.616 775.944 826.824 775.944 829.056V831.144C775.936 832.648 775.936 834.152 775.936 835.656C775.936 838.864 775.92 842.072 775.904 845.256C775.872 851.232 775.848 857.176 775.848 863.176C775.848 867.336 775.832 871.496 775.8 875.656C775.792 877.232 775.792 878.808 775.792 880.384C775.864 899.424 770.472 913.024 757.072 926.784C756.096 927.832 755.192 928.952 754.304 930.072C752.904 931.808 751.528 933.12 749.808 934.528C746.648 937.184 744.16 940.16 741.648 943.408C740.84 944.048 740.84 944.048 740.008 944.704C737.504 944.384 737.504 944.384 735.208 943.904C735.048 849.504 735.048 849.504 735.376 823.104C735.4 821.152 735.416 819.2 735.424 817.248C735.44 814.64 735.48 812.024 735.52 809.408V807.208C735.624 802.888 736.336 800.392 739.208 796.968C741.048 795.528 741.048 795.528 743.112 794.32C743.88 793.848 744.656 793.384 745.448 792.904C746.712 792.144 746.712 792.144 748.008 791.368C749.904 790.184 751.784 788.976 753.656 787.768C754.144 787.456 754.624 787.152 755.12 786.832C757.76 785.128 760.352 783.392 762.904 781.568C768.952 777.272 775.224 773.328 781.464 769.328C782.928 768.376 784.384 767.416 785.832 766.44C787.976 765.016 790.16 763.672 792.368 762.344C798.328 758.688 804.208 754.864 810.048 750.984C813.808 748.528 817.568 746.08 821.328 743.68C825.192 741.224 829.008 738.704 832.848 736.152C834.12 735.304 835.392 734.448 836.664 733.6C837.32 733.16 837.968 732.728 838.64 732.272C850.08 724.656 861.44 717.072 873.2 709.952C884.16 703.224 894.96 696.192 905.68 688.992C912.304 684.544 918.96 680.192 925.76 675.952C941.92 665.792 958 655.632 973.6 644.592C978.064 641.456 982.48 638.616 987.36 636.192C992.504 633.08 997.44 629.72 1002.4 626.272C1004.57 624.744 1006.77 623.272 1008.98 621.816C1011.38 620.216 1011.38 620.216 1013.78 620.216L1013.6 620Z" fill="#58AA50"/>
<path d="M267.2 620.8C271.192 621.216 274.16 622.568 277.52 624.6C278.008 624.888 278.496 625.176 279 625.472C282.4 627.488 285.696 629.512 288.76 632V633.6C289.464 633.808 290.176 634.024 290.904 634.24C293.48 635.168 295.432 636.248 297.712 637.752C298.472 638.248 299.232 638.752 300.016 639.264C300.792 639.768 301.568 640.28 302.36 640.8C303.824 641.728 305.288 642.648 306.76 643.568C313.616 647.896 320.44 652.208 326.92 657.088C329.464 658.928 332.144 660.496 334.856 662.088C336.64 663.144 338.352 664.256 340.056 665.416C343.408 667.68 346.824 669.832 350.296 671.968C350.848 672.312 351.4 672.656 351.976 673.016C353.072 673.696 354.168 674.384 355.264 675.064C359.864 677.936 364.464 680.84 368.944 683.864C372.84 686.464 376.76 689.024 380.704 691.576C381.4 692.032 382.104 692.488 382.824 692.952C387.12 695.744 391.464 698.504 395.784 701.272C398.208 702.824 400.592 704.424 402.976 706.024C405.024 707.384 407.096 708.688 409.176 710C411.984 711.776 414.72 713.608 417.416 715.552C420.64 717.84 423.96 719.888 427.336 721.896C432.552 724.984 437.576 728.272 442.616 731.656C448.528 735.64 454.536 739.544 460.696 743.176C465.368 745.944 469.816 749.072 474.216 752.136C477.48 754.4 480.76 756.632 484.056 758.848C484.544 759.176 485.024 759.504 485.52 759.84C487.688 761.288 489.816 762.576 492.152 763.72C494.192 764.768 495.216 765.624 496.76 767.248C498.072 768.144 499.408 769.008 500.76 769.848C501.544 770.344 502.336 770.832 503.144 771.344C503.944 771.84 504.736 772.336 505.56 772.848C506.976 773.744 508.392 774.648 509.808 775.552C510.536 776.008 511.264 776.472 512.016 776.952C514.12 778.296 516.216 779.648 518.32 781C523.504 784.344 528.72 787.64 533.92 790.92C534.928 791.544 535.92 792.168 536.92 792.792C538.272 793.648 539.64 794.48 541 795.312C543.24 796.96 543.808 797.536 544.728 800.08C544.872 802.08 544.936 803.992 544.92 805.992C544.92 806.888 544.92 806.888 544.928 807.8C544.928 809.808 544.92 811.808 544.912 813.808V818.112C544.912 822.008 544.904 825.912 544.888 829.792C544.88 833.864 544.88 837.952 544.88 842.032C544.872 849.744 544.856 857.472 544.84 865.152C544.824 873.952 544.816 882.752 544.808 891.472C544.792 909.552 544.76 927.632 544.728 945.632C541.688 944.992 540.392 943.984 538.208 941.744C537.272 940.8 537.272 940.8 536.32 939.84C535.68 939.176 535.04 938.512 534.376 937.832C533.736 937.184 533.104 936.536 532.44 935.864C531.208 934.608 529.976 933.344 528.744 932.088C527.472 930.784 526.184 929.488 524.896 928.2C514.496 917.8 505.456 904.68 505.456 889.48V887.472V885.336C505.448 883.816 505.448 882.288 505.448 880.76C505.448 877.512 505.432 874.264 505.416 871C505.384 864.96 505.36 858.92 505.36 852.84C505.36 848.632 505.344 844.44 505.312 840.2C505.304 838.592 505.304 836.992 505.304 835.392C505.312 833.152 505.296 830.912 505.272 828.672C505.288 827.68 505.288 827.68 505.296 826.664C505.24 823.28 505.08 821.984 502.888 819.256C500.448 817.344 497.96 815.56 495.36 813.888C494.84 813.544 494.32 813.2 493.784 812.848C492.672 812.128 491.568 811.4 490.456 810.68C488.784 809.6 487.12 808.512 485.456 807.416C479.568 803.568 473.616 799.824 467.616 796.216C463.184 793.528 458.816 790.784 454.656 787.736C448.832 783.576 442.816 779.736 436.736 775.896C433.928 774.096 431.168 772.232 428.416 770.368C424 767.392 419.456 764.664 414.896 762.048C413.064 760.952 411.424 759.808 409.752 758.488C406.816 756.2 403.704 754.328 400.472 752.44C396.28 749.968 392.232 747.376 388.312 744.536C384.824 742.088 381.2 739.856 377.592 737.592C376.128 736.656 374.656 735.728 373.192 734.792C371 733.4 368.816 732.008 366.624 730.624C361.952 727.664 357.344 724.632 352.784 721.584C349.888 719.664 346.96 717.816 343.984 715.968C342.12 714.768 340.28 713.552 338.44 712.32C337.904 711.952 337.36 711.592 336.8 711.216C335.736 710.496 334.672 709.768 333.608 709.048C331.472 707.608 329.624 706.432 327.176 705.616L326.376 704.016C325.072 703.256 323.76 702.496 322.44 701.768C320.048 700.4 317.8 698.856 315.52 697.304C314.216 696.44 312.896 695.608 311.552 694.8C289.392 681.44 274.592 660.08 267.952 635.2C267.52 632.576 267.264 630.104 267.208 627.448C267.224 625.6 267.224 625.6 266.696 623.848C266.352 622.4 266.352 622.4 267.152 620.8H267.2Z" fill="#58AA50"/>
<path d="M675.2 612C686.4 621.28 694.48 634.48 697.2 648.8C697.528 652.256 697.584 655.68 697.544 659.12C697.544 660.032 697.536 660.952 697.528 661.896C697.392 668.496 696.832 673.896 694 679.976C693.568 680.936 693.136 681.896 692.696 682.888C686.08 696.888 674.776 707.048 660.456 712.808C645.816 717.488 628.216 717.048 614.456 709.984C598.776 701.344 589.096 689.504 583.496 672.544C579.52 657.584 582.384 642.864 589.712 629.504C594.616 621.104 601.072 614.864 609.152 609.664C609.92 609.104 609.92 609.104 610.704 608.528C629.904 595.088 657.344 598.288 675.184 612.048L675.2 612ZM601.2 626.4C596.944 631.92 593.728 638.16 591.6 644.8C591.328 645.616 591.328 645.616 591.056 646.44C587.608 658.92 590.344 672.44 596.28 683.64C603.352 695.48 615.24 703.56 628.52 707C642.44 709.6 656.28 707.736 668.28 699.992C669.408 699.192 670.528 698.376 671.632 697.544C672.12 697.184 672.616 696.824 673.12 696.456C682.4 689.136 687.44 677.336 689.76 666.056C691.064 651.016 687.672 637.336 677.84 625.576C677.128 624.776 677.128 624.776 676.4 623.96C675.904 623.4 675.408 622.84 674.904 622.272C666.904 613.712 655.624 608.672 644.024 607.712C627.304 607.264 612.344 613.632 601.224 626.352L601.2 626.4Z" fill="#41725D"/>
<path d="M660 624C669.36 629.928 675.84 639.6 678.32 650.32C680.32 661.44 678.496 671.36 672.568 680.88C670.36 683.768 667.984 686.352 665.368 688.88C664.888 689.344 664.4 689.816 663.904 690.296C656.144 696.936 645.824 698.456 635.984 698.016C625.744 697.2 615.424 691.736 608.624 684.096C601.912 674.736 597.904 665.376 599.344 653.696C601.824 642.176 607.824 631.776 617.584 625.136C631.904 616.656 645.584 615.856 660.064 623.984L660 624ZM614.72 637.68C609.304 644.696 605.92 653.68 607.016 662.56C609.128 672.32 613.328 679.12 621.416 684.96C630.376 690.192 640.136 691.344 650.376 689.24C659.096 686 665.576 679.48 669.496 671.16C672.336 663.304 672.28 653.16 668.976 645.56C664.312 637 658.656 631.08 649.536 627.32C646.448 626.504 643.504 626.368 640.336 626.4C639.432 626.4 639.432 626.4 638.504 626.408C628.904 626.616 621.304 630.816 614.664 637.768L614.72 637.68Z" fill="#58AA50"/>
<path d="M640.8 636C642.352 637.352 642.352 637.352 643.2 639.2C642.952 641.4 642.952 641.4 642.4 643.2C641.704 643.408 641.704 643.408 640.992 643.616C634.776 645.544 630.592 647.736 627.312 653.456C625.968 656.096 624.984 658.784 624.032 661.616C622.184 661.352 620.336 661.088 618.432 660.816C616.816 655.824 618.632 651.696 620.832 647.216C624.96 640.536 632.752 635.216 640.832 636.016L640.8 636Z" fill="#58AA50"/>
</svg>
