<svg width="526" height="151" viewBox="0 0 526 151" fill="none" xmlns="http://www.w3.org/2000/svg">
<path fill-rule="evenodd" clip-rule="evenodd" d="M490.143 62.5605C489.67 62.655 489.195 63.6979 489.195 64.266C489.101 68.0592 489.006 78.1092 489.006 84.9352C489.006 85.1252 489.29 85.5044 489.574 85.5044C490.996 85.5989 494.409 85.6934 497.349 85.6934C501.425 85.6934 503.796 85.1252 505.124 84.5571C508.536 82.8496 510.148 79.152 510.148 75.0742C510.148 65.879 503.701 62.3705 494.125 62.3705C493.461 62.2759 491.567 62.2759 490.143 62.5605ZM514.605 104.941C514.605 95.5544 507.683 90.3393 495.169 90.3393C494.599 90.3393 490.617 90.2448 489.669 90.4338C489.384 90.5294 489.006 90.7194 489.006 91.004C489.006 97.7345 488.911 108.449 489.195 112.62C489.384 114.421 490.713 116.982 492.325 117.74C494.03 118.688 497.918 118.877 500.573 118.877C508.062 118.877 514.605 114.706 514.605 104.941ZM470.803 57.3465C471.75 57.3465 474.594 57.63 481.895 57.63C488.816 57.63 494.315 57.441 501.046 57.441C509.294 57.441 520.672 60.3794 520.672 72.705C520.672 78.7729 516.405 83.6088 510.812 85.979C510.528 86.0735 510.528 86.2626 510.812 86.3571C518.775 88.3492 525.792 93.2787 525.792 102.569C525.792 111.672 520.104 117.455 511.855 121.058C506.83 123.239 500.573 123.997 494.22 123.997C489.384 123.997 476.396 123.429 469.191 123.619C468.433 123.333 469.855 119.92 470.517 119.352C472.225 119.256 473.551 119.162 475.353 118.593C477.913 117.93 478.197 117.171 478.576 113.284C478.766 109.966 478.766 98.2081 478.766 89.8657C478.766 78.3937 478.862 70.6194 478.766 66.8273C478.672 63.8889 477.629 62.9396 475.543 62.3705C473.93 62.0869 471.276 61.7068 469.095 61.4232C468.621 60.9485 470.233 57.7246 470.803 57.3465ZM416.096 116.318C418.373 118.118 422.829 118.876 426.811 118.876C431.93 118.876 437.05 117.93 441.98 113.472C447.005 108.923 450.513 101.907 450.513 90.7194C450.513 80.0047 446.436 71.2821 438.093 66.1636C433.352 63.2232 427.284 61.9924 420.268 61.9924C418.183 61.9924 416.192 62.0869 414.96 62.655C414.674 62.8451 414.011 63.6979 414.011 64.1715C413.821 66.0681 413.821 80.6684 413.821 89.202C413.821 98.0191 413.821 110.345 414.011 111.767C414.011 113.19 414.674 115.37 416.097 116.318H416.096ZM394.574 57.3455C396.376 57.3455 403.297 57.63 406.615 57.63C412.589 57.63 416.855 57.3465 428.137 57.3465C437.618 57.3465 445.582 59.9057 451.271 64.7407C458.192 70.7139 461.796 78.9629 461.796 89.0119C461.796 103.329 455.253 111.578 448.711 116.318C442.17 121.153 433.637 123.997 421.501 123.997C415.054 123.997 403.961 123.808 394.764 123.712H394.67C394.196 122.859 395.428 119.541 396.186 119.446C398.652 119.162 399.315 119.066 400.548 118.594C402.538 117.834 402.919 116.792 403.203 113.284C403.487 106.742 403.392 98.8729 403.392 89.9602C403.392 83.6088 403.487 71.1876 403.297 67.2054C403.013 63.8879 401.591 63.0342 398.746 62.465C397.324 62.1814 395.428 61.8013 392.774 61.5177C392.394 60.853 394.1 57.9146 394.574 57.3465V57.3455Z" fill="#8E714E"/>
<path fill-rule="evenodd" clip-rule="evenodd" d="M279.855 120.015C277.485 119.73 275.778 119.352 273.693 118.404C273.408 118.214 272.933 117.266 272.933 116.886C272.744 113.568 272.744 104.087 272.744 97.7355C272.744 92.615 271.892 88.1592 269.71 85.0307C267.15 81.4266 263.454 79.342 258.712 79.342C254.541 79.342 248.947 82.1859 244.301 86.1681C244.206 86.2626 243.448 86.9273 243.543 85.8835C243.543 84.8407 243.733 82.7551 243.827 81.3321C243.923 80.0047 243.164 79.342 243.164 79.342C240.13 80.8585 231.597 82.8496 228.468 83.1331C226.193 83.6088 225.624 85.789 227.995 86.5472H228.09C230.648 87.3054 232.355 88.1592 233.682 89.0129C234.63 89.7712 234.535 90.814 234.535 91.6677C234.63 98.7773 234.63 109.681 234.346 115.654C234.252 118.025 233.588 118.877 231.881 119.256L232.071 119.162C230.743 119.447 229.701 119.73 228.089 119.92C227.519 120.489 227.519 123.523 228.089 124.187C229.131 124.187 234.63 123.902 239.182 123.902C245.439 123.902 248.663 124.187 250.274 124.187C250.938 123.429 251.128 120.584 250.749 119.92C248.947 119.826 247.619 119.637 246.387 119.256C244.681 118.876 244.206 118.025 244.111 116.033C243.923 111.007 243.923 100.389 243.923 93.1842C243.923 91.1931 244.491 90.2448 245.059 89.6756C247.24 87.7801 250.749 86.4527 253.877 86.4527C256.911 86.4527 258.901 87.401 260.419 88.6338C262.504 90.3393 263.168 92.8051 263.453 94.6061C263.926 98.6828 263.737 106.742 263.737 113.758C263.737 117.55 263.453 118.498 262.032 118.972C261.367 119.256 259.66 119.637 257.669 119.825C257.006 120.489 257.196 123.429 257.669 124.092C260.419 124.092 263.643 123.808 268.383 123.808C274.261 123.808 278.054 124.092 279.571 124.092C280.044 123.523 280.234 120.774 279.855 120.015ZM306.117 83.7989C301.093 83.7989 297.964 87.6855 297.964 93.7523C297.964 99.9157 300.713 107.026 308.488 107.026C309.815 107.026 312.281 106.457 313.417 105.13C315.219 103.424 316.452 100.01 316.452 96.4071C316.452 88.5383 312.564 83.7979 306.117 83.7979V83.7989ZM305.454 125.703C303.558 125.703 302.23 126.273 301.377 126.747C297.395 129.305 295.594 131.771 295.594 134.712C295.594 137.46 296.636 139.64 298.912 141.537C301.661 143.907 305.454 145.045 310.289 145.045C319.959 145.045 324.226 139.83 324.226 134.712C324.226 131.107 322.424 128.737 318.728 127.411C316.073 126.273 311.238 125.703 305.454 125.703ZM306.117 150.355C300.334 150.355 296.162 149.122 292.56 146.373C289.051 143.718 287.535 139.736 287.535 136.986C287.535 136.228 287.725 134.141 289.431 132.246C290.473 131.107 292.75 128.927 298.154 125.23C298.343 125.135 298.437 125.041 298.437 124.85C298.437 124.661 298.247 124.47 298.058 124.377C293.603 122.67 292.275 119.92 291.895 118.404V118.214C291.802 117.644 291.611 117.076 292.465 116.507C293.129 116.033 294.077 115.464 295.119 114.802C296.731 113.852 298.438 112.81 299.48 111.956C299.67 111.767 299.67 111.578 299.67 111.388C299.67 111.198 299.48 111.007 299.29 110.914C292.655 108.733 289.337 103.802 289.337 96.4071C289.337 91.5722 291.517 87.2109 295.404 84.4616C298.058 82.3759 304.695 79.8157 309.057 79.8157H309.341C313.797 79.9102 316.262 80.8585 319.769 82.0914C321.666 82.7551 323.468 83.0386 325.934 83.0386C329.63 83.0386 331.242 81.9013 332.569 80.5749C332.664 80.764 332.854 81.2386 332.949 82.4705C333.043 83.7033 332.664 85.5044 331.716 86.8318C330.958 87.8746 329.251 88.6338 327.545 88.6338H327.07C325.364 88.4438 324.604 88.2537 324.604 88.2537L324.226 88.4438C324.132 88.6338 324.226 88.8229 324.321 89.1075L324.416 89.2975C324.605 90.1503 324.984 92.7095 324.984 93.3742C324.984 101.149 321.856 104.561 318.537 107.121C315.314 109.491 311.617 111.007 307.445 111.388C307.35 111.388 306.972 111.388 306.117 111.482C305.644 111.482 304.98 111.578 304.884 111.578H304.79C304.032 111.767 302.136 112.715 302.136 114.326C302.136 115.748 302.989 117.455 307.066 117.74C307.918 117.835 308.771 117.835 309.72 117.93C315.124 118.308 321.856 118.783 324.984 119.826C329.346 121.437 332.095 125.324 332.095 129.97C332.095 136.987 327.071 143.529 318.728 147.604C314.651 149.406 310.573 150.355 306.117 150.355ZM360.158 84.2725C358.168 84.2725 356.366 84.7451 355.039 85.6934C351.342 87.9691 349.446 92.5205 349.446 99.1564C349.446 111.578 355.703 120.3 364.615 120.3C367.27 120.3 369.356 119.541 371.157 118.025C373.906 115.748 375.329 111.198 375.329 104.845C375.329 92.5205 369.166 84.2715 360.159 84.2715L360.158 84.2725ZM361.866 124.851C345.748 124.851 339.965 113 339.965 101.907C339.965 94.1325 343.093 88.1592 349.35 83.8924C353.807 81.1431 359.117 79.6266 363.857 79.6266C376.182 79.6266 384.81 88.4438 384.81 101.149C384.81 109.776 381.397 116.602 374.854 120.774C371.726 122.86 366.322 124.851 361.865 124.851H361.866ZM192.915 84.2715C190.923 84.2715 189.122 84.7451 187.794 85.6934C184.097 87.9691 182.201 92.5205 182.201 99.1564C182.201 111.578 188.458 120.3 197.37 120.3C200.025 120.3 202.111 119.541 203.913 118.025C206.661 115.748 208.084 111.198 208.084 104.845C208.084 92.5205 202.016 84.2715 192.915 84.2715ZM194.621 124.851C178.503 124.851 172.72 113 172.72 101.907C172.72 94.1325 175.848 88.1592 182.105 83.8924C186.562 81.1431 191.872 79.6266 196.612 79.6266C208.938 79.6266 217.565 88.4438 217.565 101.149C217.565 109.776 214.152 116.602 207.609 120.774C204.575 122.86 199.171 124.851 194.621 124.851ZM86.2532 123.902C86.0631 123.619 85.8731 122.765 85.9686 121.722C85.9686 120.963 86.1587 120.489 86.2532 120.3C88.2443 120.015 89.2871 119.73 90.4244 119.447C92.321 118.972 93.0792 117.93 93.1738 115.56C93.4594 109.871 93.4594 99.0619 93.3638 91.5722V91.3821C93.3638 90.5294 93.3638 89.4855 92.321 88.7273C90.8035 87.7801 89.0025 86.9273 86.6323 86.2616C85.7796 85.979 85.2104 85.5044 85.3049 84.9362C85.3049 84.367 85.8741 83.7033 87.107 83.5133C90.2354 83.2287 98.3878 81.2386 101.612 79.8157C101.802 80.0047 102.086 80.5749 102.086 81.3331L101.992 82.3749C101.896 83.4188 101.802 84.6516 101.802 85.8835C101.802 86.2626 102.182 86.5472 102.56 86.5472C102.75 86.5472 102.94 86.4527 103.129 86.3571C109.197 81.6167 114.696 79.9102 117.54 79.9102C122.186 79.9102 125.79 82.0914 128.539 86.6417C128.728 86.9273 128.918 87.0218 129.203 87.0218C129.392 87.0218 129.675 86.9273 129.771 86.7373C135.365 82.4705 140.959 79.9102 144.656 79.9102C153.473 79.9102 158.688 86.4527 158.688 97.5455C158.688 100.674 158.688 104.751 158.593 108.449C158.593 111.767 158.499 114.801 158.499 116.982C158.499 117.454 159.161 118.972 160.204 119.256C161.532 119.92 163.334 120.205 165.704 120.584H165.798C165.988 121.248 165.609 123.712 165.23 124.187C164.661 124.187 163.807 124.187 162.86 124.092C160.46 123.967 158.057 123.904 155.654 123.902C149.776 123.902 146.742 123.997 143.802 124.187C143.614 123.429 143.518 121.153 143.802 120.584C145.509 120.3 146.362 120.015 147.406 119.731C149.303 119.162 149.776 118.308 149.872 115.843C149.872 114.042 150.25 98.6828 149.681 94.9852C149.112 91.1931 146.268 86.7373 140.01 86.7373C137.64 86.7373 133.943 87.6855 130.34 90.4338C130.151 90.6239 129.96 91.0975 129.96 91.3821V91.4777C130.34 93.4677 130.34 95.7444 130.34 99.252V105.414C130.34 109.681 130.244 113.663 130.34 116.696C130.34 118.783 131.573 119.256 132.616 119.637C133.185 119.73 133.563 119.826 134.037 119.92C134.89 120.11 135.744 120.3 137.071 120.584C137.261 120.964 137.261 122.196 136.977 123.239C136.881 123.808 136.691 124.091 136.597 124.187C133.374 124.092 130.055 123.997 125.22 123.997C123.798 123.997 121.333 124.092 119.247 124.092C117.54 124.092 115.929 124.187 114.981 124.187C114.886 123.997 114.696 123.334 114.696 122.29C114.696 121.438 114.886 120.774 115.076 120.584C115.549 120.489 115.929 120.395 116.403 120.395C117.54 120.205 118.489 120.015 119.436 119.826C121.049 119.352 121.617 118.498 121.712 116.413C121.996 111.672 122.281 98.1147 121.617 94.7006C120.48 89.202 117.351 86.4527 112.325 86.4527C109.387 86.4527 105.688 87.8746 102.656 90.1513C102.181 90.5294 101.802 91.4766 101.802 92.3304V97.9246C101.802 104.751 101.802 113.284 101.896 116.982C101.992 118.118 102.37 119.446 104.551 119.92C105.026 120.015 105.784 120.205 106.732 120.3L108.438 120.584C108.629 121.153 108.533 123.429 108.154 124.187C107.206 124.187 106.069 124.092 104.74 124.092C102.75 123.997 100.19 123.902 97.346 123.902C94.0275 123.902 91.6573 123.997 89.7607 124.092C88.4333 123.902 87.3905 123.902 86.2532 123.902Z" fill="#C9C9C9"/>
<path fill-rule="evenodd" clip-rule="evenodd" d="M36.3823 146.657L32.4956 145.329C32.4956 145.329 32.9703 125.514 25.8586 124.092C21.1193 118.593 26.6189 -109.14 43.684 123.333C43.684 123.333 37.8052 126.271 36.7624 131.298C35.6241 136.228 36.3823 146.657 36.3823 146.657Z" fill="white"/>
<path fill-rule="evenodd" clip-rule="evenodd" d="M36.3823 146.657L32.4956 145.329C32.4956 145.329 32.9703 125.514 25.8586 124.092C21.1193 118.593 26.6189 -109.14 43.684 123.333C43.684 123.333 37.8052 126.271 36.7624 131.298C35.6241 136.228 36.3823 146.657 36.3823 146.657Z" fill="#A6A385"/>
<path fill-rule="evenodd" clip-rule="evenodd" d="M38.469 127.505C38.469 127.505 72.5066 105.13 64.5412 58.5773C56.8624 24.7317 38.7535 13.6389 36.7624 9.37213C34.5823 6.33822 32.4957 1.02966 32.4957 1.02966L33.9186 95.1742C33.9186 95.2697 30.9792 123.997 38.47 127.506" fill="white"/>
<path fill-rule="evenodd" clip-rule="evenodd" d="M38.469 127.505C38.469 127.505 72.5066 105.13 64.5412 58.5773C56.8624 24.7317 38.7535 13.6389 36.7624 9.37213C34.5823 6.33822 32.4957 1.02966 32.4957 1.02966L33.9186 95.1742C33.9186 95.2697 30.9792 123.997 38.47 127.506" fill="#499D4A"/>
<path fill-rule="evenodd" clip-rule="evenodd" d="M30.5056 128.737C30.5056 128.737 -1.44647 106.931 0.450106 68.5338C2.25113 30.1358 24.8159 11.2687 29.1772 7.8557C32.022 4.8218 32.1165 3.68344 32.3066 0.649536C34.2977 4.91632 33.9186 64.4571 34.2022 71.4721C35.0549 98.4927 32.6857 123.619 30.5056 128.737Z" fill="white"/>
<path fill-rule="evenodd" clip-rule="evenodd" d="M30.5056 128.737C30.5056 128.737 -1.44647 106.931 0.450106 68.5338C2.25113 30.1358 24.8159 11.2687 29.1772 7.8557C32.022 4.8218 32.1165 3.68344 32.3066 0.649536C34.2977 4.91632 33.9186 64.4571 34.2022 71.4721C35.0549 98.4927 32.6857 123.619 30.5056 128.737Z" fill="#58AA50"/>
</svg>
