<svg width="134" height="151" viewBox="0 0 134 151" fill="none" xmlns="http://www.w3.org/2000/svg">
<g clip-path="url(#clip0_5:636)">
<path fill-rule="evenodd" clip-rule="evenodd" d="M79.6703 17.8927L110.475 35.6792C111.365 34.7381 112.385 33.9305 113.506 33.2813C119.894 29.6083 128.043 31.7891 131.754 38.1781C135.427 44.5672 133.246 52.7156 126.857 56.4266C125.745 57.0669 124.547 57.544 123.299 57.8432V93.4292C124.534 93.7289 125.719 94.2028 126.819 94.8365C133.246 98.5474 135.427 106.696 131.716 113.085C128.043 119.474 119.856 121.655 113.467 117.982C112.229 117.272 111.114 116.367 110.165 115.302L79.5473 132.979C79.9957 134.336 80.2235 135.757 80.2218 137.187C80.2218 144.532 74.2541 150.539 66.8703 150.539C59.4864 150.539 53.5187 144.57 53.5187 137.187C53.5187 135.874 53.7073 134.607 54.0588 133.409L23.2619 115.628C22.3823 116.55 21.3761 117.343 20.2734 117.982C13.8463 121.655 5.69736 119.474 2.02445 113.085C-1.64795 106.696 0.532779 98.5474 6.92132 94.8365C8.02189 94.2026 9.20702 93.7286 10.4411 93.4286V57.8432C9.1934 57.544 7.9952 57.0669 6.8833 56.4266C0.494237 52.7542 -1.68649 44.5672 1.98642 38.1781C5.65934 31.7891 13.8458 29.6083 20.2349 33.2813C21.349 33.927 22.3645 34.7295 23.2505 35.6641L54.0645 17.8729C53.7013 16.6401 53.5175 15.3613 53.5187 14.076C53.5187 6.69324 59.4864 0.724487 66.8703 0.724487C74.2541 0.724487 80.2218 6.69272 80.2218 14.076C80.2218 15.4031 80.0291 16.6839 79.6703 17.8927ZM76.4609 23.3729L107.34 41.201C106.848 42.9198 106.707 44.7199 106.925 46.4943C107.143 48.2687 107.716 49.9811 108.609 51.5297C110.488 54.7995 113.55 56.9672 116.949 57.812V93.4422C116.775 93.4844 116.603 93.5307 116.432 93.5797L76.102 23.7297C76.2239 23.613 76.3437 23.4943 76.4609 23.3734V23.3729ZM57.6468 23.7375L17.3177 93.5864C17.1433 93.536 16.9679 93.4891 16.7916 93.4458V57.812C20.1901 56.9672 23.252 54.7995 25.1317 51.5297C26.0267 49.9781 26.5999 48.2621 26.8171 46.4841C27.0343 44.7062 26.891 42.9026 26.3958 41.1813L57.2656 23.3583C57.3901 23.487 57.5171 23.6135 57.6468 23.737V23.7375ZM70.601 26.9016L110.921 96.7349C109.997 97.6162 109.206 98.626 108.57 99.7333C107.937 100.834 107.463 102.019 107.163 103.253H26.5786C26.2785 102.019 25.8043 100.834 25.1703 99.7333C24.5328 98.6337 23.7426 97.6299 22.8234 96.7521L63.151 26.9047C64.36 27.2528 65.6121 27.4289 66.8703 27.4276C68.1656 27.4276 69.4171 27.2443 70.601 26.9016ZM76.7442 128.192L107.422 110.48C107.33 110.191 107.248 109.898 107.176 109.604H26.5614C26.5187 109.777 26.4724 109.949 26.4229 110.12L57.251 127.92C58.4959 126.625 59.9899 125.596 61.6431 124.894C63.2962 124.192 65.0743 123.832 66.8703 123.835C68.729 123.832 70.5679 124.218 72.2685 124.968C73.969 125.719 75.4937 126.817 76.7442 128.192Z" fill="#E535AB"/>
</g>
<defs>
<clipPath id="clip0_5:636">
<rect width="133.333" height="150" fill="white" transform="translate(0.203735 0.724487)"/>
</clipPath>
</defs>
</svg>
