<svg width="245" height="151" viewBox="0 0 245 151" fill="none" xmlns="http://www.w3.org/2000/svg">
<g clip-path="url(#clip0_5:633)">
<path d="M124.672 92.8141C124.672 97.8501 120.93 102.009 116.078 102.662C110.325 116.084 98.6091 129.179 82.5568 138.456C69.0845 146.243 54.8076 150.041 42.0015 150.041C25.7154 150.041 11.8059 143.898 4.94327 132C-6.20206 112.678 4.65693 85.7163 30.3961 67.4975C30.397 71.6593 30.7225 75.4752 31.4508 78.8612C29.3738 80.6144 27.4869 82.1153 25.6447 84.0491C20.9048 89.022 17.1156 94.1755 14.5233 99.6778C9.68793 109.941 9.36055 119.642 13.6022 126.996C18.3812 135.281 28.7324 140.033 42.0015 140.033C53.4999 140.033 66.1266 136.394 77.5573 129.789C84.2138 125.942 90.1324 121.323 95.1482 116.057C99.889 111.083 103.607 105.771 106.199 100.269C106.425 99.7895 106.638 99.3118 106.843 98.836C105.523 97.1068 104.81 94.9902 104.813 92.8141C104.813 87.3252 109.258 82.8749 114.742 82.8749C120.227 82.8749 124.672 87.3252 124.672 92.8141ZM80.3587 0.877441C102.528 0.877441 120.903 24.3262 124.216 54.973C120.771 52.8952 117.131 51.1592 113.348 49.7899C112.901 47.4399 112.34 45.113 111.668 42.8173C109.734 36.2211 106.998 30.3424 103.533 25.3427C97.0714 16.0208 88.841 10.8864 80.3587 10.8864C71.8754 10.8864 63.6459 16.0208 57.1842 25.3437C53.7195 30.3424 50.983 36.2211 49.0493 42.8173C47.0029 49.7985 45.9654 57.2392 45.9654 64.9322C45.9654 72.6252 47.0029 80.066 49.0483 87.0462C50.983 93.6424 53.7195 99.5211 57.1842 104.521C57.5431 105.038 57.9077 105.543 58.2771 106.034C58.8789 105.922 59.4898 105.865 60.102 105.864C65.5864 105.864 70.0313 110.314 70.0313 115.803C70.0313 121.292 65.5864 125.742 60.102 125.742C54.6176 125.742 50.1727 121.292 50.1727 115.803C50.1727 114.68 50.3616 113.6 50.7052 112.593C41.6588 100.866 35.9664 83.8599 35.9664 64.9322C35.9664 29.5551 55.8413 0.877441 80.3587 0.877441ZM118.62 140.031C130.797 140.031 140.516 136.029 145.726 128.969C148.756 130.572 152.123 131.547 155.678 132.041C148.776 143.807 134.813 150.04 118.62 150.04C108.607 150.04 97.6966 147.718 86.9731 142.983C91.1461 140.676 94.8427 138.447 97.5811 136.374C104.669 138.766 111.841 140.031 118.62 140.031ZM135.049 83.8876C130.032 78.6224 124.113 74.0029 117.458 70.1564C106.027 63.5497 93.4005 59.9115 81.904 59.9115C79.3908 59.9115 76.9827 60.0825 74.6977 60.415L74.5259 60.4437C73.4875 64.8214 69.5589 68.0803 64.8667 68.0803C59.3833 68.0803 54.9374 63.63 54.9374 58.1411C54.9374 52.6513 59.3833 48.201 64.8667 48.201C67.4419 48.201 69.7879 49.1822 71.5518 50.7921L71.5919 50.7835C74.8819 50.1988 78.3352 49.9036 81.9011 49.9036C94.7091 49.9026 108.982 53.7013 122.456 61.4889C144.625 74.301 158.54 94.3934 159.87 112.575C155.844 112.121 152.436 110.784 149.304 109.055C148.675 106.019 147.605 102.875 146.099 99.6758C143.506 94.1727 139.789 88.8606 135.049 83.8876Z" fill="#999999"/>
<path d="M236.349 68.7902C240.748 75.4208 231.79 80.6077 227.778 73.9399C225.334 69.7619 221.584 65.8542 216.666 62.4405C211.673 58.9724 205.799 56.2332 199.21 54.2975C192.236 52.2491 184.802 51.2106 177.117 51.2106C169.432 51.2106 161.998 52.2491 155.024 54.2975C153.839 54.6466 152.664 55.0269 151.499 55.4383C151.356 60.8029 146.97 65.109 141.575 65.109C136.092 65.109 131.646 60.6587 131.646 55.1698C131.646 49.68 136.092 45.2297 141.575 45.2297C143.4 45.2297 145.109 45.7246 146.578 46.5845C155.655 43.1545 166.057 41.2017 177.117 41.2017C203.871 41.2017 226.79 52.6036 236.348 68.7902H236.349ZM244.697 92.8141C244.697 97.7985 241.032 101.925 236.254 102.642C226.64 118.746 203.784 130.074 177.117 130.074C156.292 130.074 137.792 123.167 126.106 112.472C120.454 106.784 127.257 100.176 132.53 104.792C134.11 106.259 135.794 107.61 137.568 108.835C142.562 112.304 148.435 115.043 155.025 116.978C161.998 119.027 169.432 120.065 177.117 120.065C184.802 120.065 192.236 119.027 199.21 116.979C205.799 115.043 211.673 112.304 216.666 108.835C221 105.826 224.423 102.434 226.85 98.8112C225.542 97.0867 224.834 94.9799 224.837 92.8141C224.837 87.3252 229.283 82.8749 234.768 82.8749C240.251 82.8749 244.697 87.3252 244.697 92.8141Z" fill="#89D96D"/>
</g>
<defs>
<clipPath id="clip0_5:633">
<rect width="244.344" height="150" fill="white" transform="translate(0.586121 0.877441)"/>
</clipPath>
</defs>
</svg>
