<svg width="151" height="151" viewBox="0 0 151 151" fill="none" xmlns="http://www.w3.org/2000/svg">
<path fill-rule="evenodd" clip-rule="evenodd" d="M75.7925 0.649536C90.6261 0.649536 105.127 5.04821 117.46 13.2893C129.794 21.5304 139.407 33.2438 145.083 46.9483C150.76 60.6527 152.245 75.7327 149.351 90.2813C146.457 104.83 139.314 118.194 128.825 128.683C118.337 139.171 104.973 146.315 90.4242 149.208C75.8757 152.102 60.7957 150.617 47.0912 144.94C33.3868 139.264 21.6734 129.651 13.4323 117.317C5.19115 104.984 0.79248 90.4831 0.79248 75.6495C0.79248 55.7583 8.69424 36.6817 22.7595 22.6165C36.8247 8.5513 55.9012 0.649536 75.7925 0.649536Z" fill="#CC6699"/>
<path d="M122.839 32.7498C119.442 19.432 97.3547 15.0712 76.4511 22.4748C63.3599 26.8738 51.2648 33.8116 40.8583 42.8909C29.3458 53.6587 27.5083 63.0337 28.2636 66.9498C30.9422 80.7712 49.869 89.8034 57.6529 96.5051V96.5426C55.36 97.673 38.56 106.186 34.6172 114.864C30.4708 124.036 35.2761 130.614 38.4636 131.498C43.2493 132.65 48.2755 132.275 52.8372 130.426C57.399 128.576 61.2672 125.345 63.8993 121.186C66.0746 117.815 67.4356 113.985 67.8744 109.998C68.3133 106.011 67.8181 101.977 66.4279 98.2141C70.1772 97.2614 74.0746 97.0377 77.9082 97.5552C91.0654 99.0927 93.6475 107.305 93.1547 110.744C92.9229 111.969 92.4301 113.129 91.71 114.146C90.9899 115.162 90.0593 116.012 88.9815 116.637C88.06 117.211 87.7761 117.403 87.8565 117.832C87.969 118.448 88.3922 118.427 89.1797 118.293C91.1569 117.67 92.899 116.463 94.1767 114.83C95.4543 113.198 96.2074 111.217 96.3368 109.148C96.6529 101.112 88.9332 92.0802 75.2618 92.3105C71.2911 92.1971 67.3289 92.7401 63.535 93.9177C63.3451 93.7007 63.1523 93.4864 62.9565 93.2748C54.5029 84.2587 38.8815 77.8784 39.5404 65.7552C39.7815 61.3462 41.3136 49.7427 69.5404 35.6641C92.6832 24.1302 111.208 27.3069 114.412 34.3409C118.987 44.3909 104.512 63.0605 80.4797 65.7552C77.8235 66.2944 75.0799 66.2286 72.4526 65.5628C69.8253 64.8969 67.3816 63.648 65.3029 61.9087C64.0386 60.5159 63.8511 60.4569 63.3797 60.7141C62.6136 61.1373 63.1011 62.3694 63.3797 63.098C64.2999 64.7565 65.542 66.2144 67.0332 67.3864C68.5244 68.5584 70.2347 69.4208 72.0636 69.923C81.5124 71.9761 91.3678 71.0015 100.231 67.1373C114.808 61.5177 126.176 45.848 122.839 32.7498ZM60.8886 100.63C61.9526 104.298 61.8985 108.2 60.7333 111.837C60.6083 112.216 60.4708 112.591 60.3208 112.962C60.1708 113.334 60.0083 113.691 59.8333 114.034C58.9317 115.878 57.7638 117.581 56.3672 119.086C52.0118 123.837 45.9208 125.637 43.3118 124.121C40.494 122.487 41.9029 115.786 46.9547 110.444C50.8364 106.606 55.3117 103.419 60.2083 101.005L60.8886 100.63Z" fill="white"/>
</svg>
