<svg width="170" height="150" viewBox="0 0 170 150" fill="none" xmlns="http://www.w3.org/2000/svg">
<g clip-path="url(#clip0_5_619)">
<path d="M84.5664 90.0269C92.892 90.0269 99.6413 83.2992 99.6413 75.0001C99.6413 66.701 92.892 59.9733 84.5664 59.9733C76.2408 59.9733 69.4916 66.701 69.4916 75.0001C69.4916 83.2992 76.2408 90.0269 84.5664 90.0269Z" fill="#61DAFB"/>
<path d="M84.5664 105.787C129.24 105.787 165.456 92.0029 165.456 75C165.456 57.997 129.24 44.2134 84.5664 44.2134C39.8923 44.2134 3.67682 57.997 3.67682 75C3.67682 92.0029 39.8923 105.787 84.5664 105.787Z" stroke="#61DAFB" stroke-width="5"/>
<path d="M57.8192 90.3933C80.1563 128.959 110.239 153.33 125.011 144.829C139.783 136.327 133.651 98.1722 111.314 59.6068C88.9768 21.0413 58.8939 -3.3303 44.1217 5.17117C29.3496 13.6726 35.4822 51.8279 57.8192 90.3933Z" stroke="#61DAFB" stroke-width="5"/>
<path d="M57.8192 59.6064C35.4822 98.1718 29.3496 136.327 44.1217 144.829C58.8938 153.33 88.9767 128.958 111.314 90.393C133.651 51.8275 139.783 13.6723 125.011 5.17081C110.239 -3.33066 80.1562 21.041 57.8192 59.6064Z" stroke="#61DAFB" stroke-width="5"/>
</g>
<defs>
<clipPath id="clip0_5_619">
<rect width="169.133" height="150" fill="white"/>
</clipPath>
</defs>
</svg>
