<svg width="356" height="150" viewBox="0 0 356 150" fill="none" xmlns="http://www.w3.org/2000/svg">
<g clip-path="url(#clip0_5_608)">
<path d="M212.591 51.686C204.817 51.686 199.029 55.5027 199.029 64.6888C199.029 71.6097 202.844 76.4152 212.172 76.4152C220.079 76.4152 225.449 71.7555 225.449 64.4013C225.449 56.068 220.644 51.686 212.591 51.686ZM197.049 116.549C195.209 118.806 193.376 121.206 193.376 124.035C193.376 129.683 200.579 131.383 210.473 131.383C218.667 131.383 229.831 130.808 229.831 123.189C229.831 118.66 224.46 118.381 217.674 117.956L197.049 116.549ZM238.873 52.1124C241.412 55.3624 244.101 59.8861 244.101 66.3847C244.101 82.068 231.808 91.2513 214.008 91.2513C209.481 91.2513 205.384 90.6874 202.844 89.9819L198.179 97.468L212.024 98.3152C236.472 99.8736 250.879 100.582 250.879 119.367C250.879 135.619 236.612 144.799 212.024 144.799C186.451 144.799 176.701 138.299 176.701 127.137C176.701 120.779 179.527 117.394 184.473 112.724C179.809 110.753 178.256 107.222 178.256 103.404C178.256 100.293 179.809 97.4694 182.356 94.7819C184.898 92.1013 187.723 89.4138 191.115 86.3055C184.192 82.9138 178.962 75.5666 178.962 65.1083C178.962 48.8624 189.702 37.7041 211.316 37.7041C217.394 37.7041 221.069 38.2624 224.319 39.1166H251.874V51.1222L238.873 52.1124Z" fill="#BABABA"/>
<path d="M276.733 26.4361C268.677 26.4361 264.015 21.7695 264.015 13.7125C264.015 5.6667 268.676 1.28198 276.733 1.28198C284.927 1.28198 289.591 5.6667 289.591 13.7125C289.591 21.7695 284.929 26.4361 276.733 26.4361ZM258.502 111.349V100.192L265.711 99.2056C267.69 98.9209 267.97 98.4986 267.97 96.375V54.8334C267.97 53.2834 267.548 52.2889 266.13 51.8695L258.502 49.182L260.055 37.7403H289.306V96.375C289.306 98.6389 289.442 98.9209 291.569 99.207L298.774 100.193V111.349H258.502Z" fill="#BABABA"/>
<path d="M354.651 105.871C348.573 108.836 339.672 111.521 331.615 111.521C314.801 111.521 308.445 104.746 308.445 88.7708V51.7555C308.445 50.9083 308.445 50.343 307.311 50.343H297.422V37.7639C309.859 36.3472 314.801 30.1305 316.355 14.7291H329.78V34.7986C329.78 35.7847 329.78 36.2111 330.912 36.2111H350.833V50.3402H329.78V84.1083C329.78 92.4444 331.76 95.6916 339.387 95.6916C343.348 95.6916 347.441 94.7055 350.831 93.4333L354.651 105.869" fill="#BABABA"/>
<path d="M145.292 68.7917L80.6869 4.19034C79.8021 3.30529 78.7516 2.60322 77.5955 2.12422C76.4393 1.64522 75.2001 1.39868 73.9487 1.39868C72.6972 1.39868 71.458 1.64522 70.3019 2.12422C69.1457 2.60322 68.0953 3.30529 67.2105 4.19034L53.7952 17.607L70.8133 34.6237C72.8137 33.9434 74.9646 33.8369 77.0224 34.3163C79.0802 34.7957 80.9626 35.8418 82.4563 37.3362C83.9581 38.8399 85.0066 40.7358 85.4821 42.8072C85.9576 44.8785 85.8408 47.0419 85.1452 49.0501L101.544 65.4515C105.512 64.0848 110.091 64.9695 113.259 68.1431C114.312 69.1957 115.148 70.4456 115.718 71.8212C116.288 73.1969 116.581 74.6714 116.581 76.1605C116.581 77.6496 116.288 79.1241 115.718 80.4997C115.148 81.8754 114.312 83.1252 113.259 84.1778C111.406 86.0327 108.967 87.188 106.358 87.4472C103.749 87.7063 101.131 87.0533 98.9492 85.5992C96.7674 84.1451 95.157 81.9799 94.392 79.472C93.627 76.9642 93.7548 74.2687 94.7535 71.8445L79.4591 56.5501L79.4577 96.8001C80.5665 97.3483 81.5791 98.0725 82.4563 98.9445C83.5095 99.9975 84.345 101.248 84.915 102.623C85.485 103.999 85.7784 105.474 85.7784 106.963C85.7784 108.453 85.485 109.927 84.915 111.303C84.345 112.679 83.5095 113.929 82.4563 114.982C78.0258 119.413 70.8452 119.413 66.4216 114.982C65.1 113.661 64.1253 112.035 63.584 110.247C63.0427 108.458 62.9516 106.564 63.3188 104.732C63.6861 102.901 64.5003 101.188 65.689 99.7466C66.8778 98.3053 68.4042 97.18 70.1327 96.4709V55.8459C68.7422 55.2781 67.4802 54.4364 66.4216 53.3709C63.0661 50.0195 62.2591 45.0959 63.9786 40.9751L47.2036 24.1973L2.90634 68.4917C2.02116 69.3769 1.319 70.4277 0.839942 71.5842C0.360886 72.7407 0.114319 73.9802 0.114319 75.232C0.114319 76.4838 0.360886 77.7233 0.839942 78.8798C1.319 80.0363 2.02116 81.0872 2.90634 81.9723L67.5119 146.575C69.2991 148.362 71.7229 149.366 74.2501 149.366C76.7773 149.366 79.201 148.362 80.9883 146.575L145.292 82.2737C147.08 80.4855 148.083 78.0608 148.083 75.5327C148.083 73.0046 147.08 70.5799 145.292 68.7917Z" fill="#DE4C36"/>
</g>
<defs>
<clipPath id="clip0_5_608">
<rect width="355.556" height="150" fill="white" transform="translate(0.113281)"/>
</clipPath>
</defs>
</svg>
