<svg width="158" height="151" viewBox="0 0 158 151" fill="none" xmlns="http://www.w3.org/2000/svg">
<g clip-path="url(#clip0_5:625)">
<path d="M109.432 104.704C115.239 104.102 119.645 99.0958 119.445 93.0872C119.245 87.0792 114.238 82.2724 108.23 82.2724H107.83C101.621 82.4728 96.8145 87.6798 97.0149 93.8882C97.2153 96.8925 98.4165 99.496 100.219 101.298C93.41 114.717 82.996 124.531 67.3751 132.742C56.7608 138.35 45.7462 140.353 34.7317 138.951C25.7194 137.749 18.71 133.744 14.3034 127.134C7.8952 117.321 7.29459 106.706 12.702 96.0915C16.5073 88.4808 22.5147 82.873 26.32 80.0691C25.519 77.4656 24.3171 73.0597 23.7165 69.8556C-5.32263 90.8845 -2.31832 119.324 6.49356 132.742C13.1022 142.756 26.5204 148.965 41.3403 148.965C45.3454 148.965 49.3505 148.564 53.3563 147.563C78.9909 142.556 98.4171 127.334 109.432 104.704ZM144.679 79.8693C129.459 62.0445 107.029 52.2312 81.394 52.2312H78.1899C76.3874 48.6263 72.5821 46.2226 68.3765 46.2226H67.9757C61.7679 46.423 56.9618 51.63 57.1616 57.839C57.362 63.847 62.3686 68.6538 68.3765 68.6538H68.7768C73.1827 68.4533 76.988 65.6495 78.5901 61.8441H82.195C97.4157 61.8441 111.835 66.2501 124.853 74.8622C134.866 81.4714 142.076 90.0835 146.081 100.497C149.485 108.909 149.285 117.12 145.68 124.13C140.073 134.745 130.66 140.553 118.244 140.553C110.233 140.553 102.623 138.149 98.6169 136.347C96.4143 138.35 92.4085 141.554 89.6046 143.557C98.2167 147.562 107.029 149.766 115.44 149.766C134.665 149.766 148.885 139.151 154.292 128.536C160.1 116.92 159.699 96.8925 144.679 79.8693ZM42.9423 108.107C43.1427 114.116 48.1493 118.922 54.1573 118.922H54.5581C60.7665 118.722 65.5727 113.515 65.3722 107.306C65.1724 101.298 60.1653 96.4917 54.1573 96.4917H53.7571C53.3563 96.4917 52.755 96.4917 52.3554 96.6915C44.1442 83.0728 40.7397 68.2529 41.9415 52.2306C42.7419 40.214 46.7477 29.7995 53.7571 21.1874C59.5647 13.7771 70.7796 10.1722 78.3903 9.97241C99.6183 9.57159 108.63 36.0079 109.231 46.6228C111.835 47.2234 116.241 48.6257 119.245 49.6271C116.841 17.1829 96.8145 0.359497 77.5893 0.359497C59.5647 0.359497 42.9423 13.3775 36.3331 32.604C27.121 58.2392 33.129 82.873 44.344 102.3C43.3431 103.701 42.7419 105.905 42.9423 108.108V108.107Z" fill="#764ABC"/>
</g>
<defs>
<clipPath id="clip0_5:625">
<rect width="157.377" height="150" fill="white" transform="translate(0.385986 0.359497)"/>
</clipPath>
</defs>
</svg>
