<svg width="151" height="151" viewBox="0 0 151 151" fill="none" xmlns="http://www.w3.org/2000/svg">
<g clip-path="url(#clip0_5:631)">
<path d="M75.3113 0.0426025C33.8902 0.0426025 0.311279 33.6209 0.311279 75.0426C0.311279 116.464 33.8902 150.043 75.3113 150.043C116.733 150.043 150.311 116.464 150.311 75.0426C150.311 33.6209 116.733 0.0426025 75.3113 0.0426025ZM16.4269 75.8242L74.5291 133.927C42.6248 133.511 16.8423 107.73 16.4269 75.8242ZM88.4925 132.455L17.8988 61.8614C23.8859 35.6817 47.3169 16.1483 75.3113 16.1483C94.8798 16.1483 112.217 25.6949 122.926 40.3826L114.772 47.5774C106.085 35.1192 91.6507 26.9658 75.3113 26.9658C54.5076 26.9658 36.7917 40.1799 30.0951 58.6727L91.6824 120.259C106.638 114.843 118.141 102.218 121.993 86.5809H96.466V75.0426H134.206C134.206 103.038 114.673 126.469 88.4931 132.455L88.4925 132.455Z" fill="#744C9E"/>
</g>
<defs>
<clipPath id="clip0_5:631">
<rect width="150" height="150" fill="white" transform="translate(0.311279 0.0426025)"/>
</clipPath>
</defs>
</svg>
